fontCallback.success({"glyphs":{"S":{"x_min":63.890625,"x_max":695.890625,"ha":757,"o":"m 97 151 q 193 122 143 134 q 315 109 243 109 q 485 156 429 109 q 541 281 541 202 q 529 348 541 320 q 494 396 518 376 q 435 433 470 416 q 352 469 400 450 l 273 501 q 200 538 233 518 q 142 587 166 558 q 104 654 118 616 q 90 745 90 693 q 176 943 90 872 q 418 1015 262 1015 q 544 1004 484 1015 q 650 976 604 993 q 619 861 643 918 q 532 886 581 875 q 420 897 483 897 q 286 861 333 897 q 238 755 238 826 q 250 703 238 726 q 281 663 262 680 q 327 632 301 645 q 383 607 354 618 l 461 576 q 559 529 516 554 q 633 472 602 505 q 679 395 663 440 q 695 291 695 351 q 597 65 695 148 q 320 -16 498 -16 q 243 -13 277 -16 q 178 -5 208 -11 q 120 8 148 0 q 63 26 93 16 q 76 88 66 56 q 97 151 86 120 "},"¦":{"x_min":163.90625,"x_max":298.640625,"ha":463,"o":"m 163 1077 q 196 1082 179 1080 q 231 1083 213 1083 q 265 1082 248 1083 q 298 1077 283 1080 l 298 615 q 231 609 270 609 q 196 611 213 609 q 163 615 179 612 l 163 1077 m 163 229 q 196 233 179 231 q 231 234 213 234 q 265 233 248 234 q 298 229 283 231 l 298 -233 q 266 -237 283 -236 q 231 -238 250 -238 q 196 -237 213 -238 q 163 -233 179 -236 l 163 229 "},"/":{"x_min":48.609375,"x_max":520.875,"ha":569,"o":"m 386 998 q 418 1002 402 1001 q 452 1004 434 1004 q 485 1002 468 1004 q 520 998 502 1001 l 181 0 q 148 -4 165 -2 q 113 -5 131 -5 q 81 -4 98 -5 q 48 0 65 -2 l 386 998 "},"y":{"x_min":18.0625,"x_max":712.5625,"ha":735,"o":"m 354 -1 q 331 -2 343 -1 q 308 -2 319 -2 q 279 -2 294 -2 q 254 0 263 -1 l 18 712 q 55 716 36 715 q 91 716 75 716 q 131 716 109 716 q 169 712 154 715 l 366 50 l 570 712 q 638 716 600 716 q 673 716 654 716 q 712 712 693 715 l 436 -144 q 395 -240 416 -201 q 348 -302 375 -279 q 289 -336 322 -326 q 213 -345 256 -345 q 150 -341 181 -345 q 95 -329 119 -336 q 101 -272 95 -297 q 118 -222 106 -247 q 152 -231 130 -226 q 198 -236 173 -236 q 232 -232 216 -236 q 262 -218 248 -229 q 288 -188 276 -208 q 311 -136 300 -169 l 354 -1 "},"Á":{"x_min":22.21875,"x_max":833.40625,"ha":857,"o":"m 613 230 l 234 230 l 166 0 q 130 -4 148 -2 q 94 -5 112 -5 q 56 -4 75 -5 q 22 0 37 -2 l 347 998 q 386 1002 365 1001 q 429 1004 406 1004 q 469 1002 448 1004 q 509 998 490 1001 l 833 0 q 795 -4 816 -2 q 755 -5 775 -5 q 718 -4 737 -5 q 683 0 700 -2 l 613 230 m 272 354 l 576 354 l 423 863 l 272 354 m 461 1082 q 423 1077 443 1079 q 385 1076 404 1076 q 348 1077 365 1076 q 312 1082 332 1079 l 460 1232 q 507 1236 482 1234 q 557 1238 532 1238 q 607 1236 583 1238 q 650 1232 630 1234 l 461 1082 "},"g":{"x_min":51.390625,"x_max":754.234375,"ha":768,"o":"m 493 91 q 672 38 616 88 q 727 -98 727 -11 q 698 -200 727 -155 q 618 -278 669 -245 q 496 -328 566 -311 q 344 -345 426 -345 q 126 -301 201 -345 q 51 -161 51 -256 q 81 -59 51 -104 q 161 12 112 -13 q 114 57 133 30 q 95 125 95 84 q 118 213 95 176 q 180 280 141 251 q 106 363 134 312 q 79 477 79 413 q 98 576 79 530 q 154 656 118 622 q 245 709 191 690 q 369 729 300 729 q 482 711 431 729 q 569 665 533 693 q 644 702 597 687 q 748 716 691 716 q 754 658 754 690 q 752 626 754 643 q 748 593 751 609 l 623 593 q 647 541 638 569 q 655 477 655 513 q 634 375 655 420 q 575 296 613 329 q 484 246 537 263 q 369 229 431 229 q 266 241 312 229 q 228 207 247 230 q 209 158 209 184 q 227 114 209 133 q 308 94 245 95 l 493 91 m 305 -18 q 211 -51 243 -16 q 180 -134 180 -86 q 193 -184 180 -165 q 228 -215 205 -204 q 282 -232 251 -227 q 351 -237 313 -237 q 525 -200 462 -237 q 587 -108 587 -163 q 561 -44 587 -66 q 463 -20 534 -22 l 305 -18 m 369 329 q 480 370 444 329 q 516 477 516 412 q 480 586 516 544 q 369 629 444 629 q 259 586 294 629 q 223 477 223 544 q 259 370 223 412 q 369 329 294 329 "},"²":{"x_min":91.671875,"x_max":530.59375,"ha":625,"o":"m 315 525 l 527 525 q 529 501 529 513 q 530 475 530 488 q 529 448 530 461 q 527 425 529 436 l 98 425 l 91 441 q 186 539 136 488 q 277 638 236 590 q 346 729 319 686 q 373 807 373 772 q 340 867 373 851 q 258 883 306 883 q 190 876 216 883 q 140 859 163 869 q 125 903 133 877 q 113 958 118 929 q 194 981 156 973 q 277 988 231 988 q 436 944 376 988 q 495 816 495 900 q 463 697 495 754 q 369 579 431 641 l 315 525 "},"ë":{"x_min":69.0625,"x_max":703.828125,"ha":774,"o":"m 214 322 q 275 151 217 205 q 445 97 332 97 q 633 131 544 97 q 651 81 644 111 q 659 22 658 51 q 558 -6 613 2 q 437 -16 503 -16 q 270 10 339 -16 q 155 86 201 37 q 89 203 110 136 q 69 351 69 270 q 89 499 69 430 q 151 618 109 568 q 255 699 192 669 q 405 729 319 729 q 534 704 478 729 q 627 635 589 679 q 684 531 664 591 q 703 400 703 470 q 702 359 703 380 q 699 322 701 337 l 214 322 m 567 425 q 557 499 567 463 q 526 561 546 534 q 475 603 506 587 q 401 619 444 619 q 271 568 316 619 q 216 425 226 516 l 567 425 m 178 838 q 174 873 175 857 q 173 908 173 890 q 174 942 173 925 q 178 977 175 959 q 214 982 195 980 q 249 983 232 983 q 283 982 264 983 q 320 977 302 980 q 325 908 325 945 q 324 874 325 891 q 320 838 323 857 q 249 834 284 834 q 214 835 234 834 q 178 838 195 836 m 462 838 q 456 908 456 870 q 457 942 456 925 q 462 977 459 959 q 497 982 478 980 q 531 983 516 983 q 566 982 548 983 q 603 977 585 980 q 607 908 607 941 q 603 838 607 873 q 532 834 567 834 q 498 835 517 834 q 462 838 478 836 "},"Î":{"x_min":-49.609375,"x_max":436.546875,"ha":386,"o":"m 122 998 q 156 1002 138 1001 q 193 1004 175 1004 q 229 1002 211 1004 q 263 998 247 1001 l 263 0 q 229 -4 247 -2 q 193 -5 212 -5 q 156 -4 175 -5 q 122 0 137 -2 l 122 998 m 436 1082 q 408 1077 424 1079 q 379 1076 393 1076 l 349 1076 q 315 1077 333 1076 q 285 1082 296 1079 l 194 1166 l 104 1082 q 72 1077 92 1079 q 39 1076 53 1076 l 7 1076 q -21 1077 -6 1076 q -49 1082 -35 1079 l 114 1232 q 150 1236 129 1234 q 194 1237 171 1237 q 238 1236 218 1237 q 276 1232 258 1234 l 436 1082 "},"e":{"x_min":68.0625,"x_max":702.828125,"ha":772,"o":"m 213 322 q 274 151 216 205 q 444 97 331 97 q 632 131 543 97 q 650 81 643 111 q 658 22 657 51 q 557 -6 612 2 q 436 -16 502 -16 q 269 10 338 -16 q 154 86 200 37 q 88 203 109 136 q 68 351 68 270 q 88 499 68 430 q 150 618 108 568 q 254 699 191 669 q 404 729 318 729 q 533 704 477 729 q 626 635 588 679 q 683 531 663 591 q 702 400 702 470 q 701 359 702 380 q 698 322 700 337 l 213 322 m 566 425 q 556 499 566 463 q 525 561 545 534 q 474 603 505 587 q 400 619 443 619 q 270 568 315 619 q 215 425 225 516 l 566 425 "},"Ã":{"x_min":22.21875,"x_max":833.40625,"ha":857,"o":"m 613 230 l 234 230 l 166 0 q 130 -4 148 -2 q 94 -5 112 -5 q 56 -4 75 -5 q 22 0 37 -2 l 347 998 q 386 1002 365 1001 q 429 1004 406 1004 q 469 1002 448 1004 q 509 998 490 1001 l 833 0 q 795 -4 816 -2 q 755 -5 775 -5 q 718 -4 737 -5 q 683 0 700 -2 l 613 230 m 272 354 l 576 354 l 423 863 l 272 354 m 177 1193 q 235 1241 199 1218 q 317 1263 271 1263 q 376 1252 346 1263 q 433 1229 405 1241 q 487 1205 460 1216 q 542 1194 514 1194 q 589 1204 569 1194 q 637 1241 609 1215 q 683 1159 669 1202 q 624 1114 659 1136 q 544 1093 588 1093 q 484 1103 513 1093 q 427 1127 455 1113 q 372 1150 399 1140 q 319 1161 345 1161 q 269 1149 289 1161 q 223 1113 249 1137 q 195 1152 208 1133 q 177 1193 183 1170 "},"J":{"x_min":38.890625,"x_max":434.75,"ha":550,"o":"m 293 875 l 118 875 q 113 905 115 888 q 112 937 112 922 q 113 968 112 952 q 118 998 115 984 l 434 998 l 434 277 q 416 137 434 194 q 363 46 398 80 q 279 -2 329 12 q 166 -16 229 -16 q 100 -11 133 -16 q 38 0 66 -6 q 44 58 38 27 q 61 120 50 88 q 99 111 77 116 q 144 106 120 106 q 195 111 169 106 q 243 129 220 115 q 279 170 265 143 q 293 245 293 198 l 293 875 "},"»":{"x_min":59.734375,"x_max":787.921875,"ha":857,"o":"m 787 369 l 555 62 q 522 57 539 59 q 486 55 505 55 q 447 57 467 55 q 408 62 428 59 l 636 368 l 408 677 q 446 682 428 680 q 485 683 465 683 q 521 682 503 683 q 555 677 539 680 l 787 369 m 438 369 l 206 62 q 173 57 190 59 q 137 55 156 55 q 98 57 118 55 q 59 62 79 59 l 287 368 l 59 677 q 97 682 79 680 q 136 683 116 683 q 172 682 154 683 q 206 677 190 680 l 438 369 "},"©":{"x_min":72.234375,"x_max":1102.859375,"ha":1175,"o":"m 727 330 q 745 288 738 311 q 757 237 752 265 q 607 208 691 208 q 493 229 543 208 q 408 290 443 251 q 355 381 373 329 q 337 497 337 434 q 356 613 337 559 q 409 707 375 668 q 492 770 443 747 q 604 793 541 793 q 684 787 654 793 q 747 770 713 782 q 741 721 745 745 q 725 675 736 697 q 670 688 694 684 q 615 691 645 691 q 495 639 536 691 q 454 497 454 587 q 497 356 454 404 q 618 308 541 308 q 673 313 647 308 q 727 330 700 318 m 587 72 q 761 105 684 72 q 891 196 837 138 q 972 331 944 254 q 1001 498 1001 409 q 972 665 1001 587 q 891 800 944 743 q 761 891 837 858 q 587 925 684 925 q 413 891 490 925 q 284 800 337 858 q 202 665 230 743 q 173 498 173 587 q 202 331 173 409 q 284 196 230 254 q 413 105 337 138 q 587 72 490 72 m 587 -18 q 377 21 472 -18 q 214 129 281 61 q 109 293 147 198 q 72 498 72 387 q 109 703 72 608 q 214 867 147 798 q 377 975 281 936 q 587 1015 472 1015 q 797 976 702 1015 q 960 868 893 937 q 1065 704 1027 798 q 1102 498 1102 609 q 1065 293 1102 387 q 960 129 1027 198 q 797 21 893 61 q 587 -18 702 -18 "},"ò":{"x_min":68.0625,"x_max":732,"ha":801,"o":"m 400 -16 q 254 11 316 -16 q 150 90 191 40 q 88 208 108 140 q 68 355 68 276 q 88 502 68 434 q 150 620 108 570 q 254 700 191 670 q 400 729 316 729 q 545 700 483 729 q 650 620 608 670 q 711 502 691 570 q 732 355 732 434 q 711 208 732 276 q 650 90 691 140 q 545 11 608 40 q 400 -16 483 -16 m 400 93 q 541 162 495 93 q 587 355 587 231 q 541 547 587 479 q 400 616 495 616 q 259 547 304 616 q 213 355 213 479 q 259 162 213 231 q 400 93 304 93 m 176 1001 q 217 1005 197 1004 q 263 1007 238 1007 q 308 1005 285 1007 q 352 1001 331 1004 l 512 825 q 447 819 480 819 q 407 820 426 819 q 373 825 388 822 l 176 1001 "},"^":{"x_min":84.734375,"x_max":676.4375,"ha":764,"o":"m 309 998 q 345 1002 326 1001 q 379 1004 363 1004 q 416 1002 397 1004 q 454 998 434 1001 l 676 511 q 641 507 657 508 q 609 506 625 506 q 578 506 594 506 q 547 509 562 506 l 377 882 l 215 509 q 183 506 200 506 q 151 506 166 506 q 120 507 137 506 q 84 511 104 508 l 309 998 "},"«":{"x_min":68.0625,"x_max":795.875,"ha":858,"o":"m 418 370 l 648 677 q 682 682 665 680 q 718 683 700 683 q 756 682 737 683 q 795 677 776 680 l 569 372 l 795 62 q 757 58 776 59 q 719 56 738 56 q 648 62 680 56 l 418 370 m 68 370 l 298 677 q 332 682 315 680 q 368 683 350 683 q 406 682 387 683 q 445 677 426 680 l 219 372 l 445 62 q 407 58 426 59 q 369 56 388 56 q 298 62 330 56 l 68 370 "},"D":{"x_min":123.625,"x_max":890.34375,"ha":971,"o":"m 123 998 q 237 1009 170 1004 q 368 1013 304 1013 q 760 880 630 1013 q 890 497 890 747 q 757 109 890 236 q 362 -16 625 -16 q 233 -11 297 -16 q 123 0 169 -6 l 123 998 m 265 116 q 313 111 284 113 q 373 109 341 109 q 522 128 455 109 q 638 191 590 147 q 713 311 687 236 q 740 501 740 387 q 713 679 740 605 q 639 799 687 752 q 525 866 591 845 q 377 887 458 887 q 320 886 351 887 q 265 882 288 886 l 265 116 "},"ÿ":{"x_min":18.0625,"x_max":712.5625,"ha":732,"o":"m 354 -1 q 331 -2 343 -1 q 308 -2 319 -2 q 279 -2 294 -2 q 254 0 263 -1 l 18 712 q 55 716 36 715 q 91 716 75 716 q 131 716 109 716 q 169 712 154 715 l 366 50 l 570 712 q 638 716 600 716 q 673 716 654 716 q 712 712 693 715 l 436 -144 q 395 -240 416 -201 q 348 -302 375 -279 q 289 -336 322 -326 q 213 -345 256 -345 q 150 -341 181 -345 q 95 -329 119 -336 q 101 -272 95 -297 q 118 -222 106 -247 q 152 -231 130 -226 q 198 -236 173 -236 q 232 -232 216 -236 q 262 -218 248 -229 q 288 -188 276 -208 q 311 -136 300 -169 l 354 -1 m 153 838 q 149 873 150 857 q 148 908 148 890 q 149 942 148 925 q 153 977 150 959 q 189 982 170 980 q 224 983 207 983 q 258 982 239 983 q 295 977 277 980 q 300 908 300 945 q 299 874 300 891 q 295 838 298 857 q 224 834 259 834 q 189 835 209 834 q 153 838 170 836 m 437 838 q 431 908 431 870 q 432 942 431 925 q 437 977 434 959 q 472 982 453 980 q 506 983 491 983 q 541 982 523 983 q 578 977 560 980 q 582 908 582 941 q 578 838 582 873 q 507 834 542 834 q 473 835 492 834 q 437 838 453 836 "},"í":{"x_min":56.953125,"x_max":404.3125,"ha":400,"o":"m 207 825 q 173 820 191 822 q 133 819 155 819 q 102 820 118 819 q 69 825 86 822 l 229 1001 q 272 1005 250 1004 q 318 1007 294 1007 q 364 1005 343 1007 q 404 1001 384 1004 l 207 825 m 152 604 l 62 604 q 58 629 59 615 q 56 658 56 644 q 58 686 56 672 q 62 712 59 701 l 287 712 l 287 0 q 253 -4 272 -2 q 219 -5 234 -5 q 186 -4 205 -5 q 152 0 168 -2 l 152 604 "},"w":{"x_min":30.5625,"x_max":1045.921875,"ha":1076,"o":"m 30 712 q 69 716 50 715 q 104 718 88 718 q 143 716 123 718 q 179 712 163 715 l 318 130 l 475 712 q 508 716 490 715 q 545 718 526 718 q 584 716 568 716 q 615 712 600 715 l 770 140 l 909 712 q 940 716 925 715 q 973 718 955 718 q 1007 716 988 718 q 1045 712 1026 715 l 833 0 q 796 -4 815 -2 q 762 -5 777 -5 q 729 -4 747 -5 q 693 0 711 -2 l 540 538 l 380 0 q 342 -4 361 -2 q 308 -5 323 -5 q 274 -4 293 -5 q 240 0 255 -2 l 30 712 "},"$":{"x_min":104.171875,"x_max":734.78125,"ha":833,"o":"m 380 -15 q 369 -16 373 -16 q 361 -16 365 -16 q 283 -13 318 -16 q 218 -5 248 -11 q 161 8 188 0 q 104 26 133 16 q 115 88 106 56 q 136 148 125 119 q 233 121 183 133 q 354 109 283 109 q 523 154 468 109 q 579 276 579 198 q 567 341 579 315 q 531 387 555 368 q 472 422 508 406 q 387 459 436 438 l 320 487 q 244 525 279 504 q 184 574 209 545 q 144 641 158 602 q 130 734 130 680 q 195 909 130 841 q 380 994 259 977 l 380 1129 q 427 1134 401 1134 q 477 1129 455 1134 l 477 1000 q 592 987 536 997 q 688 962 648 977 q 658 847 682 904 q 572 871 620 861 q 459 882 523 882 q 325 848 372 882 q 277 745 277 815 q 290 688 277 712 q 327 645 302 663 q 385 611 351 626 q 462 577 419 595 l 515 555 q 605 512 565 534 q 674 459 645 490 q 718 387 702 429 q 734 286 734 345 q 667 93 734 168 q 477 -4 600 19 l 477 -163 q 454 -168 466 -166 q 430 -169 441 -169 q 405 -168 418 -169 q 380 -163 393 -166 l 380 -15 "},"\\":{"x_min":44.453125,"x_max":518.09375,"ha":572,"o":"m 518 0 q 484 -4 501 -2 q 452 -5 468 -5 q 417 -4 434 -5 q 383 0 400 -2 l 44 998 q 77 1002 59 1001 q 112 1004 95 1004 q 147 1002 129 1004 q 180 998 165 1001 l 518 0 "},"Ì":{"x_min":-29.203125,"x_max":308.3125,"ha":386,"o":"m 122 998 q 156 1002 138 1001 q 193 1004 175 1004 q 229 1002 211 1004 q 263 998 247 1001 l 263 0 q 229 -4 247 -2 q 193 -5 212 -5 q 156 -4 175 -5 q 122 0 137 -2 l 122 998 m -29 1232 q 14 1236 -9 1234 q 63 1238 38 1238 q 114 1236 88 1238 q 162 1232 140 1234 l 308 1082 q 237 1076 276 1076 q 198 1077 218 1076 q 161 1082 179 1079 l -29 1232 "},"µ":{"x_min":111.125,"x_max":732,"ha":838,"o":"m 111 712 q 145 716 126 715 q 179 718 163 718 q 213 716 194 718 q 247 712 231 715 l 247 340 q 288 159 247 218 q 418 100 329 100 q 484 111 452 100 q 541 147 516 123 q 581 208 566 170 q 595 298 595 245 l 595 712 q 629 716 611 715 q 663 718 648 718 q 697 716 679 718 q 732 712 716 715 l 732 0 q 707 -4 720 -2 q 680 -5 694 -5 q 652 -4 666 -5 q 623 0 637 -2 q 613 43 619 16 q 605 88 608 69 q 522 13 572 43 q 395 -16 473 -16 q 245 45 301 -16 l 245 -327 q 211 -331 230 -330 q 177 -333 193 -333 q 144 -331 162 -333 q 111 -327 126 -330 l 111 712 "},"Ç":{"x_min":80.5625,"x_max":798.671875,"ha":858,"o":"m 759 145 q 783 88 773 116 q 798 29 793 59 q 561 -15 688 -15 l 537 -15 l 513 -75 q 527 -72 520 -73 q 540 -72 533 -72 q 652 -108 616 -72 q 687 -195 687 -144 q 633 -299 687 -263 q 484 -334 579 -334 q 433 -331 463 -334 q 373 -318 402 -329 q 378 -275 375 -297 q 394 -234 381 -252 q 481 -250 443 -250 q 579 -195 579 -250 q 555 -159 579 -169 q 490 -148 531 -148 q 451 -150 470 -148 q 411 -159 431 -152 l 400 -147 q 427 -78 413 -112 q 452 -8 440 -44 q 296 46 365 5 q 179 151 227 87 q 106 301 131 215 q 80 491 80 387 q 112 707 80 611 q 204 872 144 804 q 351 978 265 941 q 544 1015 437 1015 q 680 1004 623 1015 q 780 976 737 993 q 769 918 777 944 q 747 861 761 891 q 707 873 726 868 q 665 883 687 879 q 616 889 643 887 q 554 891 588 891 q 318 788 404 891 q 233 491 233 684 q 256 322 233 394 q 324 202 280 250 q 429 130 368 154 q 563 106 490 106 q 670 116 623 106 q 759 145 718 126 "},"-":{"x_min":65.28125,"x_max":436.140625,"ha":501,"o":"m 430 452 q 434 421 433 438 q 436 388 436 404 q 434 356 436 373 q 430 326 433 338 l 70 326 q 66 356 68 338 q 65 388 65 373 q 66 421 65 404 q 70 452 68 438 l 430 452 "},"Q":{"x_min":80.5625,"x_max":937.578125,"ha":1006,"o":"m 937 -90 q 931 -153 936 -122 q 913 -213 926 -184 l 594 -154 q 602 -90 597 -115 q 619 -34 608 -65 l 937 -90 m 502 -16 q 315 21 394 -16 q 184 128 236 59 q 106 291 131 197 q 80 498 80 386 q 106 705 80 611 q 184 868 131 800 q 315 976 236 937 q 502 1015 394 1015 q 690 976 611 1015 q 821 868 769 937 q 898 705 873 800 q 923 498 923 611 q 898 291 923 386 q 821 128 873 197 q 690 21 769 59 q 502 -16 611 -16 m 502 105 q 622 132 572 105 q 707 211 673 159 q 757 334 740 262 q 773 498 773 406 q 757 661 773 588 q 707 785 740 734 q 622 863 673 836 q 502 890 572 890 q 382 863 433 890 q 298 785 331 836 q 248 661 265 734 q 231 498 231 588 q 248 334 231 406 q 298 211 265 262 q 382 132 331 159 q 502 105 433 105 "},"M":{"x_min":105.5625,"x_max":1027.859375,"ha":1133,"o":"m 150 998 q 188 1002 166 1001 q 229 1004 209 1004 q 271 1002 248 1004 q 309 998 294 1001 l 568 373 l 827 998 q 862 1002 841 1001 q 902 1004 883 1004 q 943 1002 920 1004 q 980 998 965 1001 l 1027 0 q 993 -4 1011 -2 q 958 -5 976 -5 q 922 -4 940 -5 q 890 0 905 -2 l 858 776 l 613 206 q 556 202 586 202 q 504 206 530 202 l 268 780 l 236 0 q 204 -4 220 -2 q 172 -5 187 -5 q 137 -4 154 -5 q 105 0 120 -2 l 150 998 "},"C":{"x_min":81.953125,"x_max":798.671875,"ha":858,"o":"m 759 145 q 798 30 790 86 q 679 -5 740 5 q 547 -16 618 -16 q 352 18 438 -16 q 205 120 265 54 q 113 280 145 186 q 81 493 81 375 q 113 709 81 612 q 205 873 145 805 q 351 978 265 941 q 544 1015 437 1015 q 680 1004 623 1015 q 782 977 737 993 q 770 918 779 945 q 748 861 761 891 q 708 873 727 868 q 666 883 688 879 q 617 889 644 887 q 555 891 590 891 q 320 788 404 891 q 236 493 236 686 q 259 322 236 394 q 326 202 283 250 q 429 131 369 155 q 565 108 490 108 q 670 118 623 108 q 759 145 718 127 "},"!":{"x_min":118.0625,"x_max":284.75,"ha":403,"o":"m 129 998 q 164 1002 147 1001 q 200 1004 181 1004 q 238 1002 219 1004 q 277 998 258 1001 l 269 300 q 204 294 237 294 q 138 300 166 294 l 129 998 m 123 0 q 119 38 120 19 q 118 76 118 56 q 119 115 118 95 q 123 155 120 136 q 161 159 143 158 q 200 161 180 161 q 239 159 219 161 q 279 155 259 158 q 283 116 281 136 q 284 77 284 97 q 283 38 284 58 q 279 0 281 19 q 240 -4 259 -2 q 201 -5 220 -5 q 162 -4 181 -5 q 123 0 143 -2 "},"ç":{"x_min":70.84375,"x_max":615.328125,"ha":664,"o":"m 586 122 q 605 73 597 102 q 615 13 613 44 q 522 -9 570 -1 q 416 -16 475 -16 l 391 -79 q 416 -77 398 -77 q 525 -111 488 -77 q 562 -195 562 -144 q 507 -300 562 -265 q 361 -334 452 -334 q 312 -331 341 -334 q 255 -318 283 -329 q 260 -277 256 -298 q 275 -237 263 -255 q 361 -252 320 -252 q 430 -238 404 -252 q 456 -197 456 -223 q 431 -158 456 -169 q 365 -147 406 -147 q 326 -150 345 -147 q 288 -156 306 -152 q 280 -150 286 -155 q 333 -8 306 -76 q 136 111 201 16 q 70 355 70 206 q 92 502 70 434 q 157 620 113 570 q 265 700 201 670 q 416 729 330 729 q 519 721 473 729 q 605 698 565 713 q 599 644 605 675 q 581 590 593 613 q 509 607 547 601 q 427 613 472 613 q 265 543 319 613 q 211 355 211 473 q 272 159 211 222 q 437 97 334 97 q 513 102 479 97 q 586 122 548 108 "},"È":{"x_min":122.234375,"x_max":686.171875,"ha":745,"o":"m 122 998 l 670 998 q 675 937 675 970 q 674 905 675 922 q 670 875 673 888 l 263 875 l 263 588 l 588 588 q 593 559 591 575 q 594 527 594 543 q 593 495 594 512 q 588 465 591 479 l 263 465 l 263 123 l 682 123 q 686 62 686 95 q 685 30 686 47 q 682 0 684 13 l 122 0 l 122 998 m 177 1232 q 221 1236 197 1234 q 270 1238 245 1238 q 321 1236 295 1238 q 369 1232 347 1234 l 515 1082 q 444 1076 483 1076 q 405 1077 425 1076 q 368 1082 386 1079 l 177 1232 "},"{":{"x_min":69.453125,"x_max":504.203125,"ha":575,"o":"m 211 54 q 208 190 211 134 q 191 285 205 245 q 149 352 177 325 q 69 406 120 380 l 69 425 q 134 466 106 444 q 177 515 161 487 q 202 578 194 543 q 209 661 209 613 q 215 834 209 759 q 249 960 222 909 q 330 1036 276 1011 q 479 1062 384 1062 l 498 1062 q 502 1035 501 1048 q 504 1007 504 1022 q 502 978 504 991 q 498 952 501 965 q 415 941 445 952 q 368 904 384 930 q 347 838 352 879 q 343 740 343 798 l 343 732 q 337 602 343 655 q 318 514 331 550 q 281 456 304 479 q 225 416 258 433 q 281 375 258 398 q 318 317 304 352 q 337 229 331 281 q 343 100 343 176 l 343 90 q 347 -6 343 33 q 368 -72 352 -47 q 415 -109 384 -97 q 498 -120 445 -120 q 502 -146 501 -133 q 504 -175 504 -159 q 502 -202 504 -188 q 498 -230 501 -216 q 360 -213 415 -230 q 272 -162 305 -197 q 225 -73 238 -127 q 211 54 211 -19 "},"X":{"x_min":29.171875,"x_max":815.34375,"ha":846,"o":"m 416 522 l 179 0 q 105 -4 138 -4 q 29 0 70 -4 l 276 522 l 68 997 q 106 1000 88 1000 q 144 1001 125 1001 q 218 997 181 1001 l 416 522 m 427 522 l 626 997 q 655 1000 641 998 q 684 1001 669 1001 l 722 1001 q 748 1000 737 1001 q 775 997 759 1000 l 566 526 l 815 0 q 738 -4 773 -4 q 665 0 708 -4 l 427 522 "},"ô":{"x_min":68.0625,"x_max":732,"ha":801,"o":"m 400 -16 q 254 11 316 -16 q 150 90 191 40 q 88 208 108 140 q 68 355 68 276 q 88 502 68 434 q 150 620 108 570 q 254 700 191 670 q 400 729 316 729 q 545 700 483 729 q 650 620 608 670 q 711 502 691 570 q 732 355 732 434 q 711 208 732 276 q 650 90 691 140 q 545 11 608 40 q 400 -16 483 -16 m 400 93 q 541 162 495 93 q 587 355 587 231 q 541 547 587 479 q 400 616 495 616 q 259 547 304 616 q 213 355 213 479 q 259 162 213 231 q 400 93 304 93 m 630 825 q 602 820 618 822 q 568 819 586 819 q 528 820 550 819 q 489 825 507 822 l 398 936 l 308 825 q 273 820 293 822 q 234 819 253 819 q 166 825 194 819 l 318 1001 q 359 1005 336 1004 q 403 1007 382 1007 q 439 1005 418 1007 q 480 1000 461 1004 l 630 825 "},"¼":{"x_min":90.734375,"x_max":1353.265625,"ha":1458,"o":"m 1020 983 q 1054 987 1037 986 q 1088 988 1072 988 q 1125 987 1106 988 q 1160 983 1144 986 l 490 1 q 453 -2 470 -1 q 420 -4 437 -4 q 349 1 381 -4 l 1020 983 m 136 788 q 108 829 118 807 q 90 877 97 851 l 358 987 l 382 987 l 382 523 l 511 523 q 517 475 517 500 q 511 425 517 448 l 132 425 q 126 448 128 437 q 125 475 125 459 q 126 499 125 487 q 132 523 128 511 l 265 523 l 265 841 l 136 788 m 1035 206 l 1171 206 l 1171 316 q 1225 320 1196 320 q 1281 316 1253 320 l 1281 206 l 1347 206 q 1351 182 1350 195 q 1353 155 1353 170 q 1347 107 1353 124 l 1281 107 l 1281 1 q 1228 -3 1253 -3 q 1171 1 1197 -3 l 1171 107 l 882 107 l 871 126 l 1099 577 q 1200 544 1154 570 l 1035 206 "},"#":{"x_min":87.5,"x_max":954.25,"ha":1021,"o":"m 263 290 l 91 290 q 87 341 87 315 q 88 372 87 356 q 93 400 90 387 l 273 400 l 293 629 l 120 629 q 115 683 115 651 q 120 737 115 713 l 301 737 l 320 958 q 352 961 337 961 q 386 962 368 962 q 415 962 401 962 q 444 959 429 962 l 426 737 l 662 737 l 682 958 q 713 961 698 961 q 747 962 729 962 q 777 962 762 962 q 807 959 791 962 l 787 737 l 950 737 q 954 687 954 712 q 950 629 954 655 l 779 629 l 759 400 l 920 400 q 925 375 923 388 q 926 348 926 361 q 925 318 926 333 q 920 290 923 302 l 750 290 l 729 40 q 668 36 697 36 q 607 40 636 36 l 626 290 l 390 290 l 370 40 q 305 36 337 36 q 243 40 276 36 l 263 290 m 634 400 l 654 629 l 416 629 l 398 400 l 634 400 "},"Ê":{"x_min":122.234375,"x_max":686.171875,"ha":745,"o":"m 122 998 l 670 998 q 675 937 675 970 q 674 905 675 922 q 670 875 673 888 l 263 875 l 263 588 l 588 588 q 593 559 591 575 q 594 527 594 543 q 593 495 594 512 q 588 465 591 479 l 263 465 l 263 123 l 682 123 q 686 62 686 95 q 685 30 686 47 q 682 0 684 13 l 122 0 l 122 998 m 637 1082 q 609 1077 625 1079 q 580 1076 594 1076 l 550 1076 q 516 1077 534 1076 q 486 1082 497 1079 l 395 1166 l 305 1082 q 273 1077 293 1079 q 240 1076 254 1076 l 208 1076 q 179 1077 194 1076 q 151 1082 165 1079 l 315 1232 q 351 1236 330 1234 q 395 1237 372 1237 q 439 1236 419 1237 q 477 1232 459 1234 l 637 1082 "},")":{"x_min":69.453125,"x_max":373.640625,"ha":443,"o":"m 69 -231 q 113 -146 86 -202 q 168 -8 141 -90 q 215 181 195 73 q 234 422 234 290 q 215 663 234 555 q 168 853 195 770 q 113 992 141 936 q 69 1077 86 1048 q 102 1082 84 1080 q 140 1083 120 1083 q 177 1082 159 1083 q 205 1077 194 1080 q 266 962 236 1029 q 320 812 297 895 q 359 630 344 729 q 373 422 373 531 q 359 214 373 312 q 320 33 344 116 q 266 -117 297 -50 q 205 -231 236 -184 q 177 -236 194 -234 q 143 -237 161 -237 q 104 -236 123 -237 q 69 -231 84 -234 "},"Å":{"x_min":22.21875,"x_max":833.40625,"ha":857,"o":"m 262 1137 q 308 1254 262 1208 q 427 1300 354 1300 q 546 1254 500 1300 q 593 1137 593 1208 q 570 1052 593 1088 q 508 995 547 1015 l 833 0 q 795 -4 816 -2 q 755 -5 775 -5 q 718 -4 737 -5 q 683 0 700 -2 l 612 230 l 236 230 l 166 0 q 130 -4 148 -2 q 94 -5 112 -5 q 56 -4 75 -5 q 22 0 37 -2 l 347 995 q 285 1052 308 1015 q 262 1137 262 1088 m 576 354 l 423 858 l 272 354 l 576 354 m 427 1047 q 483 1072 463 1047 q 502 1137 502 1097 q 483 1202 502 1177 q 427 1227 463 1227 q 371 1202 391 1227 q 351 1137 351 1177 q 371 1072 351 1097 q 427 1047 391 1047 "},"ø":{"x_min":70.84375,"x_max":740.34375,"ha":801,"o":"m 400 -16 q 211 36 287 -16 l 184 1 q 134 -4 162 -4 q 81 0 102 -4 l 152 90 q 90 208 111 140 q 70 355 70 276 q 90 502 70 434 q 152 620 111 570 q 254 700 193 670 q 400 729 316 729 q 513 711 462 729 q 602 663 563 694 l 637 707 q 688 712 658 712 q 740 708 719 712 l 658 605 q 711 492 694 555 q 729 355 729 429 q 709 208 729 276 q 647 90 688 140 q 545 11 607 40 q 400 -16 483 -16 m 212 355 q 238 198 212 259 l 526 566 q 400 616 479 616 q 258 547 304 616 q 212 355 212 479 m 400 93 q 542 162 495 93 q 588 355 588 231 q 584 429 588 395 q 569 491 579 462 l 286 130 q 400 93 329 93 "},"â":{"x_min":66.671875,"x_max":622.265625,"ha":718,"o":"m 487 334 q 434 340 466 337 q 380 343 402 343 q 249 311 294 343 q 204 213 204 279 q 219 148 204 172 q 257 112 234 125 q 308 97 280 100 q 361 94 336 94 q 427 97 393 94 q 487 108 461 101 l 487 334 m 487 469 q 445 583 487 551 q 325 615 404 615 q 234 607 276 615 q 151 587 191 600 q 125 697 125 633 q 229 720 172 712 q 338 729 286 729 q 550 666 477 729 q 622 463 622 602 l 622 18 q 504 -4 573 6 q 362 -16 434 -16 q 239 -4 294 -16 q 146 36 184 8 q 87 106 108 63 q 66 211 66 150 q 90 316 66 270 q 156 391 115 361 q 252 435 198 420 q 366 450 306 450 q 439 447 411 450 q 487 443 468 445 l 487 469 m 578 825 q 550 820 566 822 q 516 819 534 819 q 476 820 498 819 q 437 825 455 822 l 346 936 l 256 825 q 221 820 241 822 q 182 819 201 819 q 114 825 142 819 l 266 1001 q 307 1005 284 1004 q 351 1007 330 1007 q 387 1005 366 1007 q 428 1000 409 1004 l 578 825 "},"}":{"x_min":69.453125,"x_max":504.203125,"ha":575,"o":"m 362 54 q 348 -73 362 -19 q 301 -162 334 -127 q 213 -213 268 -197 q 75 -230 158 -230 q 70 -202 72 -216 q 69 -175 69 -188 q 70 -146 69 -159 q 75 -120 72 -133 q 157 -109 126 -120 q 204 -72 188 -97 q 225 -6 220 -47 q 230 90 230 33 l 230 100 q 236 229 230 176 q 255 317 241 281 q 292 375 269 352 q 348 416 315 398 q 292 456 315 433 q 255 514 269 479 q 236 602 241 550 q 230 732 230 655 l 230 740 q 225 838 230 798 q 204 904 220 879 q 157 941 188 930 q 75 952 126 952 q 70 978 72 965 q 69 1007 69 991 q 70 1035 69 1022 q 75 1062 72 1048 l 94 1062 q 243 1036 188 1062 q 324 960 297 1011 q 357 834 351 909 q 363 661 363 759 q 371 578 363 613 q 395 515 379 543 q 439 466 412 487 q 504 425 466 444 l 504 406 q 424 352 452 380 q 381 285 395 325 q 365 190 368 245 q 362 54 362 134 "},"Ä":{"x_min":22.21875,"x_max":833.40625,"ha":857,"o":"m 613 230 l 234 230 l 166 0 q 130 -4 148 -2 q 94 -5 112 -5 q 56 -4 75 -5 q 22 0 37 -2 l 347 998 q 386 1002 365 1001 q 429 1004 406 1004 q 469 1002 448 1004 q 509 998 490 1001 l 833 0 q 795 -4 816 -2 q 755 -5 775 -5 q 718 -4 737 -5 q 683 0 700 -2 l 613 230 m 272 354 l 576 354 l 423 863 l 272 354 m 204 1095 q 199 1165 199 1130 q 204 1236 199 1200 q 241 1240 223 1238 q 276 1241 259 1241 q 313 1240 294 1241 q 349 1236 333 1238 q 355 1166 355 1204 q 349 1095 355 1127 q 314 1091 333 1093 q 277 1090 295 1090 q 242 1091 260 1090 q 204 1095 223 1093 m 502 1095 q 497 1130 499 1113 q 495 1165 495 1147 q 502 1236 495 1197 q 538 1240 519 1238 q 574 1241 556 1241 q 610 1240 591 1241 q 648 1236 629 1238 q 652 1166 652 1200 q 648 1095 652 1130 q 610 1091 629 1093 q 574 1090 592 1090 q 538 1091 558 1090 q 502 1095 519 1093 "},"¸":{"x_min":195.84375,"x_max":502.8125,"ha":695,"o":"m 331 -80 q 363 -77 345 -77 q 466 -111 430 -77 q 502 -197 502 -144 q 447 -300 502 -265 q 301 -334 393 -334 q 252 -332 281 -334 q 195 -319 223 -330 q 200 -277 197 -300 q 215 -238 204 -255 q 301 -252 256 -252 q 371 -239 345 -252 q 397 -197 397 -226 q 372 -159 397 -169 q 306 -148 347 -148 q 267 -151 287 -148 q 229 -158 247 -154 l 220 -151 l 288 33 l 377 33 l 331 -80 "},"a":{"x_min":66.671875,"x_max":622.265625,"ha":718,"o":"m 487 334 q 434 340 466 337 q 380 343 402 343 q 249 311 294 343 q 204 213 204 279 q 219 148 204 172 q 257 112 234 125 q 308 97 280 100 q 361 94 336 94 q 427 97 393 94 q 487 108 461 101 l 487 334 m 487 469 q 445 583 487 551 q 325 615 404 615 q 234 607 276 615 q 151 587 191 600 q 125 697 125 633 q 229 720 172 712 q 338 729 286 729 q 550 666 477 729 q 622 463 622 602 l 622 18 q 504 -4 573 6 q 362 -16 434 -16 q 239 -4 294 -16 q 146 36 184 8 q 87 106 108 63 q 66 211 66 150 q 90 316 66 270 q 156 391 115 361 q 252 435 198 420 q 366 450 306 450 q 439 447 411 450 q 487 443 468 445 l 487 469 "},"=":{"x_min":118.0625,"x_max":716.71875,"ha":833,"o":"m 711 678 q 715 647 713 664 q 716 614 716 630 q 715 582 716 599 q 711 552 713 564 l 122 552 q 118 582 119 564 q 118 614 118 599 q 118 647 118 630 q 122 678 119 664 l 711 678 m 711 413 q 715 382 713 399 q 716 349 716 365 q 715 317 716 334 q 711 287 713 299 l 122 287 q 118 317 119 299 q 118 349 118 334 q 118 382 118 365 q 122 413 119 399 l 711 413 "},"N":{"x_min":122.234375,"x_max":822.28125,"ha":945,"o":"m 122 998 q 154 1002 137 1001 q 187 1004 172 1004 q 220 1002 202 1004 q 252 998 237 1001 l 687 248 l 687 998 q 722 1002 704 1001 q 758 1004 740 1004 q 790 1002 773 1004 q 822 998 807 1001 l 822 0 q 789 -4 807 -2 q 757 -5 772 -5 q 724 -4 741 -5 q 691 0 707 -2 l 255 745 l 255 0 q 222 -4 240 -2 q 188 -5 205 -5 q 153 -4 170 -5 q 122 0 136 -2 l 122 998 "},"ú":{"x_min":102.78125,"x_max":691.71875,"ha":797,"o":"m 102 712 q 137 716 118 715 q 170 718 156 718 q 205 716 186 718 q 240 712 225 715 l 240 322 q 252 211 240 255 q 290 143 265 168 q 351 108 315 118 q 434 98 387 98 q 555 113 505 98 l 555 712 q 589 716 570 715 q 623 718 608 718 q 657 716 638 718 q 691 712 676 715 l 691 22 q 575 -4 643 8 q 436 -16 508 -16 q 307 -4 368 -16 q 201 43 247 6 q 129 144 155 79 q 102 316 102 209 l 102 712 m 435 825 q 401 820 419 822 q 361 819 383 819 q 330 820 346 819 q 297 825 314 822 l 457 1001 q 500 1005 478 1004 q 546 1007 522 1007 q 592 1005 571 1007 q 632 1001 612 1004 l 435 825 "},"2":{"x_min":79.171875,"x_max":711.171875,"ha":833,"o":"m 87 0 l 79 18 l 351 336 q 418 417 387 379 q 472 491 450 455 q 509 562 495 527 q 522 634 522 597 q 475 747 522 708 q 340 786 427 786 q 227 770 273 786 q 138 736 181 755 q 117 793 127 763 q 104 852 106 822 q 211 891 152 873 q 350 909 270 909 q 479 893 420 909 q 579 845 537 877 q 645 764 622 813 q 668 648 668 715 q 616 468 668 555 q 470 273 565 380 l 337 122 l 705 122 q 709 91 708 106 q 711 59 711 76 q 709 29 711 44 q 705 0 708 13 l 87 0 "},"ü":{"x_min":102.78125,"x_max":691.71875,"ha":797,"o":"m 102 712 q 137 716 118 715 q 170 718 156 718 q 205 716 186 718 q 240 712 225 715 l 240 322 q 252 211 240 255 q 290 143 265 168 q 351 108 315 118 q 434 98 387 98 q 555 113 505 98 l 555 712 q 589 716 570 715 q 623 718 608 718 q 657 716 638 718 q 691 712 676 715 l 691 22 q 575 -4 643 8 q 436 -16 508 -16 q 307 -4 368 -16 q 201 43 247 6 q 129 144 155 79 q 102 316 102 209 l 102 712 m 192 838 q 188 873 189 857 q 187 908 187 890 q 188 942 187 925 q 192 977 189 959 q 228 982 209 980 q 263 983 246 983 q 297 982 278 983 q 334 977 316 980 q 339 908 339 945 q 338 874 339 891 q 334 838 337 857 q 263 834 298 834 q 228 835 248 834 q 192 838 209 836 m 476 838 q 470 908 470 870 q 471 942 470 925 q 476 977 473 959 q 511 982 492 980 q 545 983 530 983 q 580 982 562 983 q 617 977 599 980 q 621 908 621 941 q 617 838 621 873 q 546 834 581 834 q 512 835 531 834 q 476 838 492 836 "},"¯":{"x_min":154.171875,"x_max":540.328125,"ha":695,"o":"m 534 963 q 538 938 537 952 q 540 912 540 925 q 538 886 540 900 q 534 861 537 872 l 159 861 q 155 886 156 872 q 154 912 154 900 q 155 938 154 923 q 159 963 156 952 l 534 963 "},"Z":{"x_min":33.34375,"x_max":754.234375,"ha":786,"o":"m 33 12 l 536 875 l 95 875 q 91 904 93 887 q 90 936 90 920 q 91 968 90 951 q 95 998 93 984 l 744 998 l 754 986 l 250 123 l 718 123 q 722 93 720 111 q 723 61 723 76 q 722 29 723 45 q 718 0 720 12 l 41 0 l 33 12 "},"u":{"x_min":102.78125,"x_max":691.71875,"ha":797,"o":"m 102 712 q 137 716 118 715 q 170 718 156 718 q 205 716 186 718 q 240 712 225 715 l 240 322 q 252 211 240 255 q 290 143 265 168 q 351 108 315 118 q 434 98 387 98 q 555 113 505 98 l 555 712 q 589 716 570 715 q 623 718 608 718 q 657 716 638 718 q 691 712 676 715 l 691 22 q 575 -4 643 8 q 436 -16 508 -16 q 307 -4 368 -16 q 201 43 247 6 q 129 144 155 79 q 102 316 102 209 l 102 712 "},"Ó":{"x_min":81.734375,"x_max":924.859375,"ha":1006,"o":"m 503 -16 q 316 21 395 -16 q 185 128 237 59 q 107 291 133 197 q 81 498 81 386 q 107 705 81 611 q 185 868 133 800 q 316 976 237 937 q 503 1015 395 1015 q 691 976 612 1015 q 822 868 770 937 q 899 705 874 800 q 924 498 924 611 q 899 291 924 386 q 822 128 874 197 q 691 21 770 59 q 503 -16 612 -16 m 503 105 q 624 132 573 105 q 708 211 674 159 q 758 334 741 262 q 774 498 774 406 q 758 661 774 588 q 708 785 741 734 q 624 863 674 836 q 503 890 573 890 q 383 863 434 890 q 299 785 333 836 q 249 661 266 734 q 233 498 233 588 q 249 334 233 406 q 299 211 266 262 q 383 132 333 159 q 503 105 434 105 m 537 1082 q 499 1077 519 1079 q 461 1076 480 1076 q 424 1077 441 1076 q 388 1082 408 1079 l 536 1232 q 583 1236 558 1234 q 633 1238 608 1238 q 683 1236 659 1238 q 726 1232 706 1234 l 537 1082 "},"k":{"x_min":105.5625,"x_max":697.28125,"ha":714,"o":"m 105 1018 q 139 1022 120 1020 q 173 1023 158 1023 q 208 1022 188 1023 q 243 1018 227 1020 l 243 0 q 208 -4 227 -2 q 173 -5 188 -5 q 139 -4 158 -5 q 105 0 120 -2 l 105 1018 m 280 369 l 506 712 q 543 716 525 715 q 580 718 561 718 q 620 716 601 718 q 658 712 638 715 l 431 379 l 697 0 q 659 -4 677 -2 q 622 -5 641 -5 q 583 -4 602 -5 q 544 0 563 -2 l 280 369 "},"Ù":{"x_min":112.515625,"x_max":823.671875,"ha":936,"o":"m 112 998 q 184 1002 145 1002 q 254 998 222 1002 l 254 431 q 265 284 254 345 q 301 185 276 223 q 367 129 326 147 q 468 111 408 111 q 568 129 527 111 q 633 185 608 147 q 669 284 658 223 q 680 431 680 345 l 680 998 q 751 1002 715 1002 q 823 998 790 1002 l 823 406 q 804 227 823 306 q 743 94 786 148 q 633 11 701 40 q 468 -16 565 -16 q 302 11 370 -16 q 192 94 234 40 q 131 227 150 148 q 112 406 112 306 l 112 998 m 235 1232 q 279 1236 255 1234 q 328 1238 303 1238 q 379 1236 353 1238 q 427 1232 405 1234 l 573 1082 q 502 1076 541 1076 q 463 1077 483 1076 q 426 1082 444 1079 l 235 1232 "},"€":{"x_min":26.390625,"x_max":813.953125,"ha":833,"o":"m 148 648 q 282 905 180 812 q 559 998 384 998 q 695 987 638 998 q 797 961 752 976 q 785 902 794 929 q 763 844 776 875 q 670 868 718 861 q 570 875 622 875 q 391 817 456 875 q 301 648 326 759 l 655 648 q 659 627 658 638 q 661 604 661 615 q 659 577 661 590 q 655 552 658 563 l 288 552 q 286 518 287 536 q 286 481 286 501 q 286 452 286 466 q 287 423 286 437 l 655 423 q 659 402 658 413 q 661 379 661 391 q 659 352 661 365 q 655 327 658 338 l 300 327 q 395 161 326 213 q 580 108 463 108 q 686 118 638 108 q 775 145 733 127 q 813 30 802 91 q 693 -5 755 5 q 562 -16 632 -16 q 279 72 381 -16 q 145 327 176 162 l 33 327 q 26 375 26 348 q 33 423 26 400 l 134 423 q 133 452 133 437 q 133 481 133 466 q 133 517 133 500 q 134 552 133 534 l 33 552 q 26 598 26 573 q 33 648 26 625 l 148 648 "},"¢":{"x_min":155.5625,"x_max":700.0625,"ha":833,"o":"m 451 -12 q 229 100 304 2 q 155 355 155 197 q 174 491 155 427 q 229 604 193 555 q 322 684 266 652 q 451 725 377 716 l 451 883 q 498 890 476 890 q 548 883 520 890 l 548 726 q 623 716 588 723 q 690 698 658 709 q 683 641 690 670 q 666 590 676 612 q 594 607 632 601 q 512 613 556 613 q 350 543 404 613 q 295 355 295 473 q 356 159 295 220 q 522 97 418 97 q 598 102 563 97 q 670 122 633 108 q 690 73 682 102 q 700 13 698 44 q 627 -4 663 2 q 548 -15 590 -12 l 548 -163 q 500 -169 526 -169 q 475 -168 487 -169 q 451 -163 462 -166 l 451 -12 "},"ß":{"x_min":109.734375,"x_max":740.34375,"ha":795,"o":"m 109 684 q 123 829 109 765 q 170 938 137 893 q 256 1007 202 983 q 387 1030 309 1030 q 504 1012 455 1030 q 584 963 552 994 q 629 892 615 933 q 644 805 644 851 q 625 700 644 743 q 581 625 605 658 q 538 562 558 591 q 519 495 519 533 q 536 446 519 466 q 577 409 552 426 q 629 375 601 393 q 682 332 658 356 q 723 273 707 308 q 740 187 740 238 q 679 40 740 97 q 497 -16 618 -16 q 404 -7 444 -16 q 329 16 365 1 q 341 72 331 44 q 361 126 350 100 q 423 103 393 111 q 486 95 454 95 q 567 115 533 95 q 601 191 601 136 q 585 246 601 225 q 545 284 569 268 q 492 318 520 301 q 439 356 463 334 q 399 408 415 377 q 383 486 383 438 q 402 570 383 534 q 445 638 422 605 q 487 709 468 672 q 506 800 506 747 q 475 886 506 854 q 384 918 444 918 q 272 861 301 918 q 244 682 244 805 l 244 0 q 211 -4 229 -2 q 177 -5 193 -5 q 143 -4 162 -5 q 109 0 125 -2 l 109 684 "},"é":{"x_min":69.0625,"x_max":703.828125,"ha":774,"o":"m 214 322 q 275 151 217 205 q 445 97 332 97 q 633 131 544 97 q 651 81 644 111 q 659 22 658 51 q 558 -6 613 2 q 437 -16 503 -16 q 270 10 339 -16 q 155 86 201 37 q 89 203 110 136 q 69 351 69 270 q 89 499 69 430 q 151 618 109 568 q 255 699 192 669 q 405 729 319 729 q 534 704 478 729 q 627 635 589 679 q 684 531 664 591 q 703 400 703 470 q 702 359 703 380 q 699 322 701 337 l 214 322 m 567 425 q 557 499 567 463 q 526 561 546 534 q 475 603 506 587 q 401 619 444 619 q 271 568 316 619 q 216 425 226 516 l 567 425 m 418 825 q 384 820 402 822 q 344 819 366 819 q 313 820 329 819 q 280 825 297 822 l 440 1001 q 483 1005 461 1004 q 529 1007 505 1007 q 575 1005 554 1007 q 615 1001 595 1004 l 418 825 "},"s":{"x_min":66.671875,"x_max":568.09375,"ha":632,"o":"m 98 129 q 181 104 136 113 q 270 95 226 95 q 331 102 302 95 q 382 123 361 109 q 417 157 404 137 q 430 202 430 177 q 420 248 430 230 q 392 279 409 266 q 352 300 375 291 q 302 318 329 309 l 254 336 q 125 411 165 369 q 84 523 84 452 q 152 673 84 618 q 350 729 219 729 q 456 718 404 729 q 547 694 508 708 q 536 638 544 666 q 518 587 529 611 q 445 609 487 598 q 354 619 402 619 q 263 601 302 619 q 223 537 223 583 q 233 497 223 513 q 259 468 243 480 q 297 448 276 456 q 344 431 319 440 l 405 411 q 468 384 438 400 q 520 346 498 369 q 554 291 541 323 q 568 212 568 258 q 547 118 568 161 q 488 46 526 76 q 395 0 450 16 q 276 -16 341 -16 q 159 -7 209 -16 q 66 16 109 1 q 78 72 69 44 q 98 129 87 101 "},"B":{"x_min":123.625,"x_max":763.953125,"ha":826,"o":"m 123 998 q 220 1009 158 1005 q 347 1013 283 1013 q 491 1000 426 1013 q 603 954 556 986 q 675 874 650 923 q 701 754 701 825 q 688 674 701 711 q 652 609 675 637 q 601 561 630 580 q 541 534 572 543 q 620 513 580 530 q 691 466 659 497 q 743 389 723 436 q 763 276 763 343 q 732 139 763 195 q 645 48 700 83 q 516 -1 590 13 q 356 -16 441 -16 q 241 -11 304 -16 q 123 0 179 -6 l 123 998 m 263 109 q 313 105 283 106 q 372 104 343 104 q 466 112 422 104 q 543 140 509 120 q 595 195 576 161 q 615 281 615 229 q 597 368 615 333 q 547 425 579 404 q 473 456 516 447 q 380 465 430 465 l 263 465 l 263 109 m 365 581 q 509 622 459 581 q 559 745 559 663 q 506 863 559 825 q 361 902 452 902 q 307 901 333 902 q 263 897 281 900 l 263 581 l 365 581 "},"?":{"x_min":59.734375,"x_max":623.65625,"ha":678,"o":"m 252 522 q 347 553 305 536 q 418 595 388 570 q 462 651 447 619 q 477 727 477 683 q 425 838 477 798 q 273 879 372 879 q 172 870 211 879 q 94 845 134 861 q 72 900 81 872 q 59 961 63 929 q 121 979 93 972 q 177 991 150 987 q 231 997 204 995 q 291 1000 259 1000 q 539 925 455 1000 q 623 729 623 851 q 595 607 623 658 q 528 522 566 556 q 450 468 490 488 q 384 440 409 448 l 384 297 q 316 291 352 291 q 284 293 301 291 q 252 297 268 294 l 252 522 m 240 1 q 236 39 237 20 q 234 77 234 58 q 236 116 234 97 q 240 155 237 136 q 279 160 259 158 q 318 162 298 162 q 356 160 337 162 q 395 155 376 158 q 400 117 398 136 q 401 79 401 98 q 400 40 401 59 q 395 1 398 20 q 358 -2 377 -1 q 319 -4 338 -4 q 277 -2 300 -4 q 240 1 255 -1 "},"H":{"x_min":122.234375,"x_max":830.625,"ha":953,"o":"m 122 998 q 156 1002 138 1001 q 193 1004 175 1004 q 229 1002 211 1004 q 263 998 247 1001 l 263 587 l 688 587 l 688 998 q 722 1002 704 1001 q 758 1004 740 1004 q 795 1002 776 1004 q 830 998 813 1001 l 830 0 q 797 -4 815 -2 q 759 -5 779 -5 q 722 -4 741 -5 q 688 0 704 -2 l 688 462 l 263 462 l 263 0 q 229 -4 247 -2 q 193 -5 212 -5 q 156 -4 175 -5 q 122 0 137 -2 l 122 998 "},"î":{"x_min":-32.109375,"x_max":431.828125,"ha":400,"o":"m 152 604 l 62 604 q 58 629 59 615 q 56 658 56 644 q 58 686 56 672 q 62 712 59 701 l 287 712 l 287 0 q 253 -4 272 -2 q 219 -5 234 -5 q 186 -4 205 -5 q 152 0 168 -2 l 152 604 m 431 825 q 403 820 419 822 q 369 819 387 819 q 329 820 351 819 q 290 825 308 822 l 199 936 l 109 825 q 74 820 94 822 q 35 819 54 819 q -32 825 -4 819 l 119 1001 q 160 1005 137 1004 q 204 1007 183 1007 q 240 1005 219 1007 q 281 1000 262 1004 l 431 825 "},"c":{"x_min":69.453125,"x_max":615.328125,"ha":664,"o":"m 586 123 q 605 75 597 104 q 615 15 613 45 q 427 -16 533 -16 q 159 84 250 -16 q 69 355 69 184 q 91 502 69 434 q 157 620 113 570 q 266 700 201 670 q 418 729 331 729 q 520 722 476 729 q 605 700 565 715 q 599 645 605 676 q 581 590 593 613 q 426 613 513 613 q 266 543 319 613 q 213 355 213 472 q 273 160 213 222 q 437 98 333 98 q 514 104 479 98 q 586 123 550 109 "},"¶":{"x_min":69.453125,"x_max":707,"ha":793,"o":"m 395 434 l 379 434 q 257 450 313 434 q 159 498 201 465 q 93 583 118 531 q 69 705 69 634 q 94 845 69 787 q 172 938 119 902 q 306 991 225 975 q 498 1007 387 1007 l 498 -8 q 395 0 429 -8 l 395 434 m 604 1007 q 707 998 673 1007 l 707 0 q 604 -8 673 -8 l 604 1007 "},"¥":{"x_min":37.5,"x_max":797.28125,"ha":833,"o":"m 348 218 l 93 218 q 87 265 87 234 q 88 290 87 277 q 93 313 90 302 l 348 313 l 348 436 l 93 436 q 87 483 87 452 q 88 508 87 495 q 93 531 90 520 l 293 531 l 37 982 q 77 986 55 984 q 118 987 98 987 q 158 986 137 987 q 195 982 179 984 l 423 562 l 647 982 q 684 986 665 984 q 722 987 702 987 q 761 986 741 987 q 797 982 780 984 l 545 531 l 757 531 q 761 487 761 512 q 757 436 761 456 l 490 436 l 490 313 l 757 313 q 761 269 761 294 q 757 218 761 238 l 490 218 l 490 0 q 455 -4 473 -2 q 419 -5 437 -5 q 383 -4 401 -5 q 348 0 365 -2 l 348 218 "},"(":{"x_min":69.453125,"x_max":373.640625,"ha":443,"o":"m 237 -231 q 175 -117 205 -184 q 122 33 145 -50 q 84 214 98 116 q 69 422 69 312 q 84 630 69 531 q 122 812 98 729 q 175 962 145 895 q 237 1077 205 1029 q 265 1082 248 1080 q 302 1083 283 1083 q 340 1082 322 1083 q 373 1077 358 1080 q 329 992 356 1048 q 274 853 301 936 q 227 663 247 770 q 208 422 208 555 q 227 181 208 290 q 274 -8 247 73 q 329 -146 301 -90 q 373 -231 356 -202 q 338 -236 358 -234 q 300 -237 319 -237 q 265 -236 281 -237 q 237 -231 248 -234 "},"U":{"x_min":112.515625,"x_max":823.671875,"ha":936,"o":"m 112 998 q 184 1002 145 1002 q 254 998 222 1002 l 254 431 q 265 284 254 345 q 301 185 276 223 q 367 129 326 147 q 468 111 408 111 q 568 129 527 111 q 633 185 608 147 q 669 284 658 223 q 680 431 680 345 l 680 998 q 751 1002 715 1002 q 823 998 790 1002 l 823 406 q 804 227 823 306 q 743 94 786 148 q 633 11 701 40 q 468 -16 565 -16 q 302 11 370 -16 q 192 94 234 40 q 131 227 150 148 q 112 406 112 306 l 112 998 "},"◊":{"x_min":41.671875,"x_max":707,"ha":749,"o":"m 565 502 l 376 877 l 184 502 l 375 127 l 565 502 m 41 502 l 306 1004 q 341 1008 323 1007 q 375 1009 359 1009 q 408 1008 390 1009 q 443 1004 426 1007 l 707 502 l 441 0 q 406 -4 425 -2 q 372 -5 387 -5 q 339 -4 356 -5 q 305 0 322 -2 l 41 502 "},"Ñ":{"x_min":122.234375,"x_max":822.28125,"ha":945,"o":"m 122 998 q 154 1002 137 1001 q 187 1004 172 1004 q 220 1002 202 1004 q 252 998 237 1001 l 687 248 l 687 998 q 722 1002 704 1001 q 758 1004 740 1004 q 790 1002 773 1004 q 822 998 807 1001 l 822 0 q 789 -4 807 -2 q 757 -5 772 -5 q 724 -4 741 -5 q 691 0 707 -2 l 255 745 l 255 0 q 222 -4 240 -2 q 188 -5 205 -5 q 153 -4 170 -5 q 122 0 136 -2 l 122 998 m 225 1193 q 283 1241 247 1218 q 365 1263 319 1263 q 424 1252 394 1263 q 481 1229 453 1241 q 535 1205 508 1216 q 590 1194 562 1194 q 637 1204 617 1194 q 685 1241 657 1215 q 731 1159 717 1202 q 672 1114 707 1136 q 592 1093 636 1093 q 532 1103 561 1093 q 475 1127 503 1113 q 420 1150 447 1140 q 367 1161 393 1161 q 317 1149 337 1161 q 271 1113 297 1137 q 243 1152 256 1133 q 225 1193 231 1170 "},"F":{"x_min":122.234375,"x_max":650.046875,"ha":700,"o":"m 122 998 l 644 998 q 648 968 647 984 q 650 937 650 952 q 648 905 650 922 q 644 875 647 888 l 263 875 l 263 581 l 581 581 q 586 550 584 566 q 587 519 587 534 q 586 488 587 504 q 581 456 584 472 l 263 456 l 263 0 q 229 -4 247 -2 q 193 -5 212 -5 q 156 -4 175 -5 q 122 0 137 -2 l 122 998 "},"­":{"x_min":65.28125,"x_max":436.140625,"ha":501,"o":"m 430 452 q 434 421 433 438 q 436 388 436 404 q 434 356 436 373 q 430 326 433 338 l 70 326 q 66 356 68 338 q 65 388 65 373 q 66 421 65 404 q 70 452 68 438 l 430 452 "},":":{"x_min":83.34375,"x_max":251.40625,"ha":335,"o":"m 90 560 q 85 598 87 579 q 83 636 83 616 q 85 675 83 655 q 90 715 87 696 q 128 719 109 718 q 166 721 147 721 q 205 719 186 721 q 244 715 225 718 q 249 676 247 696 q 251 637 251 657 q 249 598 251 618 q 244 560 247 579 q 206 555 225 557 q 168 554 187 554 q 129 555 148 554 q 90 560 109 557 m 90 0 q 85 38 87 19 q 83 76 83 56 q 85 115 83 95 q 90 155 87 136 q 128 159 109 158 q 166 161 147 161 q 205 159 186 161 q 244 155 225 158 q 249 116 247 136 q 251 77 251 97 q 249 38 251 58 q 244 0 247 19 q 206 -4 225 -2 q 168 -5 187 -5 q 129 -4 148 -5 q 90 0 109 -2 "},"Û":{"x_min":112.515625,"x_max":823.671875,"ha":936,"o":"m 112 998 q 184 1002 145 1002 q 254 998 222 1002 l 254 431 q 265 284 254 345 q 301 185 276 223 q 367 129 326 147 q 468 111 408 111 q 568 129 527 111 q 633 185 608 147 q 669 284 658 223 q 680 431 680 345 l 680 998 q 751 1002 715 1002 q 823 998 790 1002 l 823 406 q 804 227 823 306 q 743 94 786 148 q 633 11 701 40 q 468 -16 565 -16 q 302 11 370 -16 q 192 94 234 40 q 131 227 150 148 q 112 406 112 306 l 112 998 m 709 1082 q 681 1077 697 1079 q 652 1076 666 1076 l 622 1076 q 588 1077 606 1076 q 558 1082 569 1079 l 467 1166 l 377 1082 q 345 1077 365 1079 q 312 1076 326 1076 l 280 1076 q 251 1077 266 1076 q 223 1082 237 1079 l 387 1232 q 423 1236 402 1234 q 467 1237 444 1237 q 511 1236 491 1237 q 549 1232 531 1234 l 709 1082 "},"*":{"x_min":52.78125,"x_max":620.890625,"ha":674,"o":"m 294 998 q 336 1002 315 1002 q 380 998 356 1002 l 391 818 q 363 814 376 815 q 336 813 350 813 q 309 814 322 813 q 283 818 295 815 l 294 998 m 254 800 q 222 697 245 744 l 52 763 q 80 845 58 807 l 254 800 m 233 668 q 277 641 255 657 q 320 605 300 625 l 205 465 q 168 488 186 476 q 136 516 151 500 l 233 668 m 593 845 q 620 763 615 807 l 451 697 q 419 800 427 744 l 593 845 m 537 516 q 504 488 522 500 q 468 465 487 476 l 352 605 q 395 641 373 625 q 440 668 418 657 l 537 516 "},"°":{"x_min":55.5625,"x_max":462.53125,"ha":514,"o":"m 55 805 q 71 885 55 848 q 115 949 87 922 q 179 992 143 976 q 258 1008 216 1008 q 337 992 300 1008 q 402 949 375 976 q 446 885 430 922 q 462 805 462 848 q 446 727 462 763 q 402 663 430 690 q 337 620 375 636 q 258 604 300 604 q 179 620 216 604 q 115 663 143 636 q 71 727 87 690 q 55 805 55 763 m 155 805 q 184 727 155 758 q 258 697 213 697 q 333 727 302 697 q 363 805 363 758 q 333 884 363 852 q 258 915 302 915 q 184 884 213 915 q 155 805 155 852 "},"V":{"x_min":30.5625,"x_max":843.125,"ha":874,"o":"m 30 998 q 67 1002 45 1001 q 108 1004 88 1004 q 147 1002 126 1004 q 187 998 169 1001 l 440 144 l 691 998 q 768 1002 729 1002 q 806 1002 786 1002 q 843 998 826 1001 l 518 0 q 477 -4 500 -2 q 436 -5 455 -5 q 395 -4 416 -5 q 354 0 373 -2 l 30 998 "},"å":{"x_min":66.671875,"x_max":622.265625,"ha":718,"o":"m 487 334 q 434 340 466 337 q 380 343 402 343 q 249 311 294 343 q 204 213 204 279 q 219 148 204 172 q 257 112 234 125 q 308 97 280 100 q 361 94 336 94 q 427 97 393 94 q 487 108 461 101 l 487 334 m 487 469 q 445 583 487 551 q 325 615 404 615 q 234 607 276 615 q 151 587 191 600 q 125 697 125 633 q 229 720 172 712 q 338 729 286 729 q 550 666 477 729 q 622 463 622 602 l 622 18 q 504 -4 573 6 q 362 -16 434 -16 q 239 -4 294 -16 q 146 36 184 8 q 87 106 108 63 q 66 211 66 150 q 90 316 66 270 q 156 391 115 361 q 252 435 198 420 q 366 450 306 450 q 439 447 411 450 q 487 443 468 445 l 487 469 m 217 962 q 258 1070 217 1029 q 367 1111 300 1111 q 475 1070 433 1111 q 517 962 517 1029 q 475 854 517 895 q 367 813 433 813 q 258 854 300 813 q 217 962 217 895 m 367 884 q 418 905 400 884 q 436 962 436 926 q 418 1019 436 998 q 367 1040 400 1040 q 316 1019 333 1040 q 298 962 298 998 q 316 905 298 926 q 367 884 333 884 "}," ":{"x_min":0,"x_max":0,"ha":0},"0":{"x_min":68.0625,"x_max":769.5,"ha":833,"o":"m 419 909 q 572 875 506 909 q 682 778 638 840 q 747 631 726 716 q 769 445 769 547 q 747 260 769 345 q 681 113 725 175 q 570 18 637 52 q 416 -16 504 -16 q 263 18 329 -16 q 154 113 198 52 q 89 260 111 175 q 68 445 68 345 q 90 631 68 547 q 156 778 112 716 q 265 875 200 840 q 419 909 331 909 m 418 787 q 268 702 322 787 q 213 445 213 618 q 268 189 213 273 q 418 105 322 105 q 566 189 513 105 q 619 445 619 273 q 566 702 619 618 q 418 787 513 787 "},"¾":{"x_min":118.34375,"x_max":1365.265625,"ha":1458,"o":"m 1029 983 q 1063 987 1046 986 q 1097 988 1081 988 q 1134 987 1115 988 q 1169 983 1153 986 l 499 1 q 462 -2 479 -1 q 429 -4 446 -4 q 358 1 390 -4 l 1029 983 m 1047 217 l 1183 217 l 1183 327 q 1237 331 1208 331 q 1293 327 1265 331 l 1293 217 l 1359 217 q 1363 193 1362 206 q 1365 166 1365 181 q 1359 118 1365 135 l 1293 118 l 1293 12 q 1240 7 1265 7 q 1183 12 1209 7 l 1183 118 l 894 118 l 883 137 l 1111 588 q 1212 555 1166 581 l 1047 217 m 511 982 l 522 961 l 386 763 q 452 743 423 759 q 499 706 480 727 q 528 658 518 684 q 537 607 537 632 q 518 522 537 559 q 464 460 498 486 q 383 421 430 434 q 282 408 336 408 q 237 409 257 408 q 198 413 216 411 q 160 420 179 416 q 118 431 141 425 q 128 481 121 456 q 146 526 136 506 q 214 509 182 515 q 278 502 246 502 q 376 527 335 502 q 416 604 416 551 q 380 669 416 648 q 298 690 344 690 q 272 689 285 690 q 244 684 260 688 l 229 701 l 350 886 l 155 886 q 151 933 151 911 q 155 982 151 957 l 511 982 "},"@":{"x_min":77.78125,"x_max":1332.046875,"ha":1408,"o":"m 1332 545 q 1306 376 1332 459 q 1231 226 1280 293 q 1112 118 1182 159 q 955 77 1043 77 q 802 120 858 77 q 712 83 762 97 q 602 69 662 69 q 446 128 505 69 q 387 290 387 187 q 419 464 387 384 q 505 602 451 544 q 632 692 559 659 q 787 725 705 725 q 893 716 843 725 q 993 693 944 708 l 893 197 q 927 182 907 186 q 966 179 947 179 q 1069 213 1025 179 q 1145 300 1113 247 q 1192 418 1176 354 q 1208 545 1208 483 q 1104 813 1208 722 q 811 905 1000 905 q 554 854 666 905 q 364 719 441 804 q 247 526 287 634 q 206 302 206 418 q 238 116 206 194 q 323 -10 269 38 q 451 -83 377 -59 q 609 -106 525 -106 q 737 -96 677 -106 q 845 -68 797 -86 q 862 -111 854 -87 q 876 -165 870 -136 q 607 -212 775 -212 q 402 -181 498 -212 q 233 -88 305 -151 q 119 70 161 -25 q 77 297 77 166 q 121 549 77 422 q 256 779 165 676 q 489 948 348 883 q 825 1013 630 1013 q 1022 985 930 1013 q 1184 898 1115 957 q 1292 752 1252 840 q 1332 545 1332 663 m 844 605 q 811 611 826 609 q 779 613 795 613 q 678 591 725 613 q 597 527 632 568 q 544 433 563 487 q 525 316 525 379 q 556 212 525 245 q 650 179 587 179 q 708 184 682 179 q 768 205 734 190 l 844 605 "},"ö":{"x_min":68.0625,"x_max":732,"ha":801,"o":"m 400 -16 q 254 11 316 -16 q 150 90 191 40 q 88 208 108 140 q 68 355 68 276 q 88 502 68 434 q 150 620 108 570 q 254 700 191 670 q 400 729 316 729 q 545 700 483 729 q 650 620 608 670 q 711 502 691 570 q 732 355 732 434 q 711 208 732 276 q 650 90 691 140 q 545 11 608 40 q 400 -16 483 -16 m 400 93 q 541 162 495 93 q 587 355 587 231 q 541 547 587 479 q 400 616 495 616 q 259 547 304 616 q 213 355 213 479 q 259 162 213 231 q 400 93 304 93 m 185 838 q 181 873 182 857 q 180 908 180 890 q 181 942 180 925 q 185 977 182 959 q 221 982 202 980 q 256 983 239 983 q 290 982 271 983 q 327 977 309 980 q 332 908 332 945 q 331 874 332 891 q 327 838 330 857 q 256 834 291 834 q 221 835 241 834 q 185 838 202 836 m 469 838 q 463 908 463 870 q 464 942 463 925 q 469 977 466 959 q 504 982 485 980 q 538 983 523 983 q 573 982 555 983 q 610 977 592 980 q 614 908 614 941 q 610 838 614 873 q 539 834 574 834 q 505 835 524 834 q 469 838 485 836 "},"i":{"x_min":56.953125,"x_max":287.515625,"ha":400,"o":"m 152 604 l 62 604 q 58 629 59 615 q 56 658 56 644 q 58 686 56 672 q 62 712 59 701 l 287 712 l 287 0 q 253 -4 272 -2 q 219 -5 234 -5 q 186 -4 205 -5 q 152 0 168 -2 l 152 604 m 122 869 q 118 905 119 886 q 118 940 118 925 q 118 975 118 955 q 122 1009 119 994 q 161 1013 140 1012 q 197 1015 181 1015 q 233 1013 212 1015 q 270 1009 254 1012 q 274 975 273 994 q 275 940 275 955 q 274 905 275 925 q 270 869 273 886 q 234 865 254 866 q 198 863 213 863 q 161 865 181 863 q 122 869 140 866 "},"Õ":{"x_min":81.734375,"x_max":924.859375,"ha":1006,"o":"m 503 -16 q 316 21 395 -16 q 185 128 237 59 q 107 291 133 197 q 81 498 81 386 q 107 705 81 611 q 185 868 133 800 q 316 976 237 937 q 503 1015 395 1015 q 691 976 612 1015 q 822 868 770 937 q 899 705 874 800 q 924 498 924 611 q 899 291 924 386 q 822 128 874 197 q 691 21 770 59 q 503 -16 612 -16 m 503 105 q 624 132 573 105 q 708 211 674 159 q 758 334 741 262 q 774 498 774 406 q 758 661 774 588 q 708 785 741 734 q 624 863 674 836 q 503 890 573 890 q 383 863 434 890 q 299 785 333 836 q 249 661 266 734 q 233 498 233 588 q 249 334 233 406 q 299 211 266 262 q 383 132 333 159 q 503 105 434 105 m 257 1193 q 315 1241 279 1218 q 397 1263 351 1263 q 456 1252 426 1263 q 513 1229 485 1241 q 567 1205 540 1216 q 622 1194 594 1194 q 669 1204 649 1194 q 717 1241 689 1215 q 763 1159 749 1202 q 704 1114 739 1136 q 624 1093 668 1093 q 564 1103 593 1093 q 507 1127 535 1113 q 452 1150 479 1140 q 399 1161 425 1161 q 349 1149 369 1161 q 303 1113 329 1137 q 275 1152 288 1133 q 257 1193 263 1170 "},"þ":{"x_min":108.34375,"x_max":745.890625,"ha":820,"o":"m 108 1018 q 143 1021 125 1020 q 177 1022 162 1022 q 211 1021 193 1022 q 245 1018 230 1020 l 245 622 q 325 696 273 663 q 456 729 377 729 q 572 707 519 729 q 664 642 626 686 q 724 531 702 598 q 745 373 745 465 q 646 86 745 190 q 363 -16 547 -16 q 302 -11 334 -16 q 245 0 270 -6 l 245 -327 q 211 -331 230 -330 q 177 -331 191 -331 q 143 -331 162 -331 q 108 -327 125 -330 l 108 1018 m 245 116 q 300 102 272 106 q 372 97 329 97 q 463 113 422 97 q 535 162 505 129 q 582 247 565 195 q 600 368 600 298 q 559 543 600 477 q 426 608 519 608 q 359 596 391 608 q 301 559 326 584 q 261 496 276 534 q 245 405 245 458 l 245 116 "},"]":{"x_min":69.453125,"x_max":373.640625,"ha":443,"o":"m 75 -233 q 69 -176 69 -206 q 75 -120 69 -144 l 237 -120 l 237 941 l 75 941 q 70 963 72 952 q 69 986 69 975 q 75 1055 69 1023 l 373 1055 l 373 -233 l 75 -233 "},"m":{"x_min":111.125,"x_max":1090.359375,"ha":1186,"o":"m 111 712 q 140 716 126 715 q 170 718 155 718 q 199 716 186 718 q 227 712 212 715 q 236 657 231 691 q 240 600 240 623 q 271 647 252 625 q 315 688 290 670 q 375 718 341 707 q 448 729 408 729 q 577 695 531 729 q 645 600 622 661 q 679 647 659 623 q 725 688 700 670 q 782 718 750 707 q 854 729 813 729 q 1034 659 977 729 q 1090 454 1090 590 l 1090 0 q 1055 -4 1075 -2 q 1020 -5 1036 -5 q 986 -4 1005 -5 q 952 0 968 -2 l 952 413 q 923 557 952 509 q 827 605 894 605 q 713 554 757 605 q 669 402 669 502 l 669 0 q 635 -4 654 -2 q 601 -5 616 -5 q 567 -4 586 -5 q 533 0 548 -2 l 533 423 q 505 563 533 516 q 416 609 477 609 q 351 594 381 609 q 297 548 320 579 q 261 471 275 518 q 248 363 248 425 l 248 0 q 214 -4 233 -2 q 180 -5 195 -5 q 145 -4 165 -5 q 111 0 126 -2 l 111 712 "},"8":{"x_min":73.609375,"x_max":759.78125,"ha":833,"o":"m 552 529 q 625 491 588 513 q 692 436 662 469 q 741 358 722 402 q 759 255 759 313 q 730 129 759 181 q 652 45 701 77 q 542 -2 604 12 q 416 -16 480 -16 q 290 -2 351 -16 q 180 45 229 12 q 102 129 131 77 q 73 255 73 181 q 92 357 73 313 q 140 434 111 401 q 206 491 170 468 q 279 529 243 513 q 165 617 212 561 q 119 758 119 673 q 142 857 119 812 q 204 932 165 901 q 298 981 244 963 q 416 998 352 998 q 534 981 480 998 q 628 932 588 963 q 691 857 668 901 q 713 758 713 812 q 667 616 713 672 q 552 529 620 561 m 416 470 q 338 439 375 458 q 277 395 302 420 q 236 338 251 370 q 220 268 220 306 q 270 145 220 190 q 416 101 320 101 q 563 145 513 101 q 612 268 612 190 q 597 338 612 306 q 555 395 581 370 q 493 439 529 420 q 416 470 458 458 m 416 581 q 479 606 450 591 q 530 640 508 620 q 566 686 552 659 q 579 748 579 713 q 538 848 579 811 q 416 886 497 886 q 295 848 336 886 q 254 748 254 811 q 267 686 254 713 q 302 640 280 659 q 354 606 325 620 q 416 581 384 591 "},"R":{"x_min":125.015625,"x_max":802.84375,"ha":829,"o":"m 125 1000 q 180 1005 155 1002 q 229 1010 205 1008 q 280 1013 254 1012 q 338 1015 306 1015 q 479 1001 409 1015 q 602 952 548 987 q 691 859 657 918 q 725 709 725 800 q 707 611 725 655 q 661 531 688 566 q 597 471 633 497 q 529 429 562 445 l 512 420 l 802 0 q 718 -4 765 -4 q 643 0 680 -4 l 323 462 l 323 468 l 334 470 q 413 497 372 480 q 491 541 455 513 q 550 606 526 568 q 573 698 573 644 q 514 847 573 798 q 355 895 455 895 q 311 894 331 895 q 266 890 291 893 l 266 0 q 232 -2 251 -1 q 197 -4 213 -4 q 161 -3 180 -4 q 125 0 141 -2 l 125 1000 "},"á":{"x_min":66.671875,"x_max":622.265625,"ha":718,"o":"m 487 334 q 434 340 466 337 q 380 343 402 343 q 249 311 294 343 q 204 213 204 279 q 219 148 204 172 q 257 112 234 125 q 308 97 280 100 q 361 94 336 94 q 427 97 393 94 q 487 108 461 101 l 487 334 m 487 469 q 445 583 487 551 q 325 615 404 615 q 234 607 276 615 q 151 587 191 600 q 125 697 125 633 q 229 720 172 712 q 338 729 286 729 q 550 666 477 729 q 622 463 622 602 l 622 18 q 504 -4 573 6 q 362 -16 434 -16 q 239 -4 294 -16 q 146 36 184 8 q 87 106 108 63 q 66 211 66 150 q 90 316 66 270 q 156 391 115 361 q 252 435 198 420 q 366 450 306 450 q 439 447 411 450 q 487 443 468 445 l 487 469 m 358 825 q 324 820 342 822 q 284 819 306 819 q 253 820 269 819 q 220 825 237 822 l 380 1001 q 423 1005 401 1004 q 469 1007 445 1007 q 515 1005 494 1007 q 555 1001 535 1004 l 358 825 "},"×":{"x_min":159.734375,"x_max":672.28125,"ha":833,"o":"m 329 491 q 244 575 286 533 q 161 659 202 618 q 200 707 177 684 q 248 748 223 729 l 416 579 q 500 663 458 622 q 584 747 541 704 q 672 659 634 709 q 504 491 588 575 q 672 323 588 408 q 631 275 654 298 q 584 237 608 252 l 418 404 l 247 236 q 159 323 195 270 l 329 491 "},"o":{"x_min":68.0625,"x_max":732,"ha":801,"o":"m 400 -16 q 254 11 316 -16 q 150 90 191 40 q 88 208 108 140 q 68 355 68 276 q 88 502 68 434 q 150 620 108 570 q 254 700 191 670 q 400 729 316 729 q 545 700 483 729 q 650 620 608 670 q 711 502 691 570 q 732 355 732 434 q 711 208 732 276 q 650 90 691 140 q 545 11 608 40 q 400 -16 483 -16 m 400 93 q 541 162 495 93 q 587 355 587 231 q 541 547 587 479 q 400 616 495 616 q 259 547 304 616 q 213 355 213 479 q 259 162 213 231 q 400 93 304 93 "},"5":{"x_min":87.5,"x_max":709.78125,"ha":833,"o":"m 709 237 q 679 86 709 150 q 595 -19 648 22 q 468 -81 541 -61 q 311 -101 395 -101 q 197 -91 258 -101 q 87 -61 137 -81 q 101 -2 91 -30 q 126 55 111 26 q 211 31 169 40 q 311 22 252 22 q 497 72 431 22 q 563 230 563 123 q 552 304 563 269 q 513 364 540 338 q 445 404 487 390 q 341 419 402 419 q 256 412 298 419 q 183 394 215 405 l 169 406 q 178 650 173 529 q 188 895 183 772 l 661 895 q 664 866 663 880 q 665 836 665 851 q 664 803 665 819 q 661 772 663 787 l 313 772 l 305 525 q 359 531 331 530 q 401 533 386 533 q 527 513 470 533 q 625 456 584 494 q 687 363 665 418 q 709 237 709 308 "},"õ":{"x_min":68.0625,"x_max":732,"ha":801,"o":"m 400 -16 q 254 11 316 -16 q 150 90 191 40 q 88 208 108 140 q 68 355 68 276 q 88 502 68 434 q 150 620 108 570 q 254 700 191 670 q 400 729 316 729 q 545 700 483 729 q 650 620 608 670 q 711 502 691 570 q 732 355 732 434 q 711 208 732 276 q 650 90 691 140 q 545 11 608 40 q 400 -16 483 -16 m 400 93 q 541 162 495 93 q 587 355 587 231 q 541 547 587 479 q 400 616 495 616 q 259 547 304 616 q 213 355 213 479 q 259 162 213 231 q 400 93 304 93 m 159 927 q 213 975 180 955 q 292 995 246 995 q 348 986 321 995 q 398 965 374 976 q 448 944 423 954 q 501 934 473 934 q 544 943 524 934 q 594 977 564 951 q 638 893 624 940 q 582 847 616 866 q 503 827 548 827 q 448 837 474 827 q 396 858 421 847 q 347 879 371 869 q 296 888 323 888 q 249 879 269 888 q 202 845 230 869 q 176 885 187 865 q 159 927 164 905 "},"7":{"x_min":91.671875,"x_max":762.5625,"ha":833,"o":"m 340 -102 q 271 -81 302 -94 q 211 -44 240 -68 l 566 772 l 97 772 q 93 800 94 786 q 91 830 91 815 q 93 863 91 847 q 97 895 94 880 l 757 895 l 762 886 l 340 -102 "},"K":{"x_min":122.234375,"x_max":820.90625,"ha":835,"o":"m 305 506 l 626 998 q 664 1002 645 1001 q 698 1004 683 1004 q 737 1002 716 1004 q 780 998 758 1001 l 463 519 l 820 0 q 777 -4 798 -2 q 736 -5 755 -5 q 700 -4 719 -5 q 659 0 680 -2 l 305 506 m 122 998 q 156 1002 138 1001 q 193 1004 175 1004 q 229 1002 211 1004 q 263 998 247 1001 l 263 0 q 229 -4 247 -2 q 193 -5 211 -5 q 155 -4 173 -5 q 122 0 137 -2 l 122 998 "},",":{"x_min":27.78125,"x_max":247.234375,"ha":296,"o":"m 109 152 q 143 157 126 155 q 176 159 161 159 q 247 152 208 159 l 159 -156 q 125 -160 143 -159 q 93 -161 108 -161 q 59 -160 76 -161 q 27 -156 43 -159 l 109 152 "},"d":{"x_min":72.234375,"x_max":704.21875,"ha":814,"o":"m 568 1018 q 602 1022 583 1020 q 636 1023 622 1023 q 670 1022 651 1023 q 704 1018 688 1020 l 704 19 q 586 -6 651 4 q 440 -16 520 -16 q 297 2 365 -16 q 180 63 230 20 q 101 175 130 106 q 72 343 72 243 q 97 500 72 429 q 170 621 123 570 q 284 700 218 672 q 430 727 350 727 q 503 722 466 727 q 568 708 540 716 l 568 1018 m 568 591 q 508 608 540 602 q 438 613 476 613 q 340 593 381 613 q 271 536 298 572 q 231 450 244 500 q 218 343 218 401 q 280 154 219 211 q 447 97 341 97 q 513 100 483 97 q 568 111 544 104 l 568 591 "},"¨":{"x_min":129.171875,"x_max":563.9375,"ha":695,"o":"m 134 838 q 130 873 131 857 q 129 908 129 890 q 130 942 129 925 q 134 977 131 959 q 170 982 151 980 q 205 983 188 983 q 239 982 220 983 q 276 977 258 980 q 281 908 281 945 q 280 874 281 891 q 276 838 279 857 q 205 834 240 834 q 170 835 190 834 q 134 838 151 836 m 418 838 q 412 908 412 870 q 413 942 412 925 q 418 977 415 959 q 453 982 434 980 q 487 983 472 983 q 522 982 504 983 q 559 977 541 980 q 563 908 563 941 q 559 838 563 873 q 488 834 523 834 q 454 835 473 834 q 418 838 434 836 "},"Ô":{"x_min":81.734375,"x_max":924.859375,"ha":1006,"o":"m 503 -16 q 316 21 395 -16 q 185 128 237 59 q 107 291 133 197 q 81 498 81 386 q 107 705 81 611 q 185 868 133 800 q 316 976 237 937 q 503 1015 395 1015 q 691 976 612 1015 q 822 868 770 937 q 899 705 874 800 q 924 498 924 611 q 899 291 924 386 q 822 128 874 197 q 691 21 770 59 q 503 -16 612 -16 m 503 105 q 624 132 573 105 q 708 211 674 159 q 758 334 741 262 q 774 498 774 406 q 758 661 774 588 q 708 785 741 734 q 624 863 674 836 q 503 890 573 890 q 383 863 434 890 q 299 785 333 836 q 249 661 266 734 q 233 498 233 588 q 249 334 233 406 q 299 211 266 262 q 383 132 333 159 q 503 105 434 105 m 743 1082 q 715 1077 731 1079 q 686 1076 700 1076 l 656 1076 q 622 1077 640 1076 q 592 1082 603 1079 l 501 1166 l 411 1082 q 379 1077 399 1079 q 346 1076 360 1076 l 314 1076 q 285 1077 300 1076 q 257 1082 271 1079 l 421 1232 q 457 1236 436 1234 q 501 1237 478 1237 q 545 1236 525 1237 q 583 1232 565 1234 l 743 1082 "},"E":{"x_min":122.234375,"x_max":686.171875,"ha":745,"o":"m 122 998 l 670 998 q 675 937 675 970 q 674 905 675 922 q 670 875 673 888 l 263 875 l 263 588 l 588 588 q 593 559 591 575 q 594 527 594 543 q 593 495 594 512 q 588 465 591 479 l 263 465 l 263 123 l 682 123 q 686 62 686 95 q 685 30 686 47 q 682 0 684 13 l 122 0 l 122 998 "},"Y":{"x_min":25,"x_max":797.28125,"ha":822,"o":"m 341 365 l 25 998 q 63 1002 43 1001 q 105 1004 84 1004 q 145 1002 123 1004 q 183 998 166 1001 l 416 502 l 647 998 q 683 1002 665 1001 q 720 1004 701 1004 q 759 1002 740 1004 q 797 998 779 1001 l 484 365 l 484 0 q 448 -4 466 -2 q 412 -5 430 -5 q 375 -4 394 -5 q 341 0 356 -2 l 341 365 "},"\"":{"x_min":88.890625,"x_max":492.84375,"ha":583,"o":"m 360 998 q 393 1002 376 1001 q 427 1004 410 1004 q 460 1002 444 1004 q 492 998 477 1001 l 492 618 q 427 613 460 613 q 360 618 391 613 l 360 998 m 88 998 q 121 1002 104 1001 q 155 1004 138 1004 q 188 1002 172 1004 q 220 998 205 1001 l 220 618 q 155 613 188 613 q 88 618 119 613 l 88 998 "},"ê":{"x_min":69.0625,"x_max":703.828125,"ha":774,"o":"m 214 322 q 275 151 217 205 q 445 97 332 97 q 633 131 544 97 q 651 81 644 111 q 659 22 658 51 q 558 -6 613 2 q 437 -16 503 -16 q 270 10 339 -16 q 155 86 201 37 q 89 203 110 136 q 69 351 69 270 q 89 499 69 430 q 151 618 109 568 q 255 699 192 669 q 405 729 319 729 q 534 704 478 729 q 627 635 589 679 q 684 531 664 591 q 703 400 703 470 q 702 359 703 380 q 699 322 701 337 l 214 322 m 567 425 q 557 499 567 463 q 526 561 546 534 q 475 603 506 587 q 401 619 444 619 q 271 568 316 619 q 216 425 226 516 l 567 425 m 628 825 q 600 820 616 822 q 566 819 584 819 q 526 820 548 819 q 487 825 505 822 l 396 936 l 306 825 q 271 820 291 822 q 232 819 251 819 q 164 825 192 819 l 316 1001 q 357 1005 334 1004 q 401 1007 380 1007 q 437 1005 416 1007 q 478 1000 459 1004 l 628 825 "},"Ï":{"x_min":-32.15625,"x_max":420.65625,"ha":386,"o":"m 122 998 q 156 1002 138 1001 q 193 1004 175 1004 q 229 1002 211 1004 q 263 998 247 1001 l 263 0 q 229 -4 247 -2 q 193 -5 212 -5 q 156 -4 175 -5 q 122 0 137 -2 l 122 998 m -27 1095 q -32 1165 -32 1130 q -27 1236 -32 1200 q 9 1240 -8 1238 q 44 1241 27 1241 q 81 1240 62 1241 q 117 1236 101 1238 q 123 1166 123 1204 q 117 1095 123 1127 q 82 1091 101 1093 q 45 1090 63 1090 q 10 1091 28 1090 q -27 1095 -8 1093 m 270 1095 q 265 1130 267 1113 q 263 1165 263 1147 q 270 1236 263 1197 q 306 1240 287 1238 q 342 1241 324 1241 q 378 1240 359 1241 q 416 1236 397 1238 q 420 1166 420 1200 q 416 1095 420 1130 q 378 1091 397 1093 q 342 1090 360 1090 q 306 1091 326 1090 q 270 1095 287 1093 "},"Â":{"x_min":22.21875,"x_max":833.40625,"ha":857,"o":"m 613 230 l 234 230 l 166 0 q 130 -4 148 -2 q 94 -5 112 -5 q 56 -4 75 -5 q 22 0 37 -2 l 347 998 q 386 1002 365 1001 q 429 1004 406 1004 q 469 1002 448 1004 q 509 998 490 1001 l 833 0 q 795 -4 816 -2 q 755 -5 775 -5 q 718 -4 737 -5 q 683 0 700 -2 l 613 230 m 272 354 l 576 354 l 423 863 l 272 354 m 668 1082 q 640 1077 656 1079 q 611 1076 625 1076 l 581 1076 q 547 1077 565 1076 q 517 1082 528 1079 l 426 1166 l 336 1082 q 304 1077 324 1079 q 271 1076 285 1076 l 239 1076 q 210 1077 225 1076 q 182 1082 196 1079 l 346 1232 q 382 1236 361 1234 q 426 1237 403 1237 q 470 1236 450 1237 q 508 1232 490 1234 l 668 1082 "},"Í":{"x_min":87.796875,"x_max":425.3125,"ha":386,"o":"m 122 998 q 156 1002 138 1001 q 193 1004 175 1004 q 229 1002 211 1004 q 263 998 247 1001 l 263 0 q 229 -4 247 -2 q 193 -5 212 -5 q 156 -4 175 -5 q 122 0 137 -2 l 122 998 m 236 1082 q 198 1077 218 1079 q 160 1076 179 1076 q 123 1077 140 1076 q 87 1082 107 1079 l 235 1232 q 282 1236 257 1234 q 332 1238 307 1238 q 382 1236 358 1238 q 425 1232 405 1234 l 236 1082 "},"´":{"x_min":180.5625,"x_max":515.3125,"ha":695,"o":"m 318 825 q 284 820 302 822 q 244 819 266 819 q 213 820 229 819 q 180 825 197 822 l 340 1001 q 383 1005 361 1004 q 429 1007 405 1007 q 475 1005 454 1007 q 515 1001 495 1004 l 318 825 "},"ì":{"x_min":-19.8125,"x_max":316.3125,"ha":400,"o":"m -19 1001 q 21 1005 1 1004 q 67 1007 42 1007 q 112 1005 89 1007 q 156 1001 135 1004 l 316 825 q 251 819 284 819 q 211 820 230 819 q 177 825 192 822 l -19 1001 m 152 604 l 62 604 q 58 629 59 615 q 56 658 56 644 q 58 686 56 672 q 62 712 59 701 l 287 712 l 287 0 q 253 -4 272 -2 q 219 -5 234 -5 q 186 -4 205 -5 q 152 0 168 -2 l 152 604 "},"±":{"x_min":118.0625,"x_max":716.71875,"ha":833,"o":"m 355 426 l 125 426 q 119 488 119 454 q 125 550 119 522 l 355 550 l 355 802 q 385 807 370 805 q 416 808 400 808 q 447 807 431 808 q 479 802 462 805 l 479 550 l 708 550 q 712 519 711 534 q 713 488 713 504 q 712 457 713 473 q 708 426 711 441 l 479 426 l 479 175 q 447 170 462 172 q 416 169 431 169 q 355 175 381 169 l 355 426 m 711 127 q 715 96 713 113 q 716 63 716 79 q 715 31 716 48 q 711 1 713 13 l 122 1 q 118 31 119 13 q 118 63 118 48 q 118 96 118 79 q 122 127 119 113 l 711 127 "},"Ú":{"x_min":112.515625,"x_max":823.671875,"ha":936,"o":"m 112 998 q 184 1002 145 1002 q 254 998 222 1002 l 254 431 q 265 284 254 345 q 301 185 276 223 q 367 129 326 147 q 468 111 408 111 q 568 129 527 111 q 633 185 608 147 q 669 284 658 223 q 680 431 680 345 l 680 998 q 751 1002 715 1002 q 823 998 790 1002 l 823 406 q 804 227 823 306 q 743 94 786 148 q 633 11 701 40 q 468 -16 565 -16 q 302 11 370 -16 q 192 94 234 40 q 131 227 150 148 q 112 406 112 306 l 112 998 m 519 1082 q 481 1077 501 1079 q 443 1076 462 1076 q 406 1077 423 1076 q 370 1082 390 1079 l 518 1232 q 565 1236 540 1234 q 615 1238 590 1238 q 665 1236 641 1238 q 708 1232 688 1234 l 519 1082 "},"|":{"x_min":163.90625,"x_max":298.640625,"ha":463,"o":"m 163 1077 q 196 1082 179 1080 q 231 1083 213 1083 q 265 1082 248 1083 q 298 1077 283 1080 l 298 -233 q 266 -237 283 -236 q 231 -238 250 -238 q 196 -237 213 -238 q 163 -233 179 -236 l 163 1077 "},"§":{"x_min":91.671875,"x_max":687.5625,"ha":781,"o":"m 95 19 q 130 127 105 80 q 216 100 168 112 q 320 88 265 88 q 465 113 413 88 q 516 186 516 138 q 484 245 516 226 q 402 279 451 263 q 249 331 309 308 q 154 377 188 354 q 105 430 119 401 q 91 501 91 459 q 114 590 91 547 q 170 669 137 633 q 137 720 150 690 q 125 788 125 750 q 146 875 125 836 q 206 941 168 913 q 298 982 244 968 q 419 997 352 997 q 539 986 488 997 q 641 959 590 976 q 631 904 641 932 q 608 851 622 876 q 529 877 572 866 q 431 888 487 888 q 307 866 351 888 q 263 795 263 843 q 293 734 263 751 q 370 701 322 716 l 543 648 q 687 484 687 604 q 664 387 687 430 q 608 306 641 344 q 643 257 630 286 q 655 188 655 229 q 631 102 655 140 q 565 36 608 63 q 461 -4 522 9 q 327 -18 401 -18 q 204 -8 262 -18 q 95 19 145 1 m 470 375 q 486 369 477 372 q 508 362 495 366 q 541 402 523 376 q 559 465 559 429 q 539 516 559 494 q 475 551 519 537 l 376 581 q 317 598 345 591 q 268 616 288 605 q 234 576 251 601 q 218 519 218 551 q 240 463 218 484 q 309 426 262 441 l 470 375 "},"Ý":{"x_min":25,"x_max":797.28125,"ha":822,"o":"m 341 365 l 25 998 q 63 1002 43 1001 q 105 1004 84 1004 q 145 1002 123 1004 q 183 998 166 1001 l 416 502 l 647 998 q 683 1002 665 1001 q 720 1004 701 1004 q 759 1002 740 1004 q 797 998 779 1001 l 484 365 l 484 0 q 448 -4 466 -2 q 412 -5 430 -5 q 375 -4 394 -5 q 341 0 356 -2 l 341 365 m 465 1082 q 427 1077 447 1079 q 389 1076 408 1076 q 352 1077 369 1076 q 316 1082 336 1079 l 464 1232 q 511 1236 486 1234 q 561 1238 536 1238 q 611 1236 587 1238 q 654 1232 634 1234 l 465 1082 "},"b":{"x_min":109.734375,"x_max":745.890625,"ha":820,"o":"m 109 1018 q 143 1022 125 1020 q 177 1023 162 1023 q 212 1022 193 1023 q 247 1018 231 1020 l 247 626 q 325 698 272 668 q 452 729 377 729 q 570 708 516 729 q 663 643 625 687 q 724 532 702 600 q 745 373 745 465 q 642 86 745 190 q 344 -16 538 -16 q 218 -4 283 -16 q 109 22 154 6 l 109 1018 m 247 115 q 300 103 272 106 q 359 100 329 100 q 454 115 411 100 q 530 164 498 131 q 581 247 562 197 q 600 368 600 298 q 559 547 600 483 q 426 611 519 611 q 363 600 394 611 q 305 567 331 590 q 263 506 279 544 q 247 413 247 468 l 247 115 "},"q":{"x_min":72.234375,"x_max":702.828125,"ha":813,"o":"m 566 0 q 504 -11 537 -6 q 431 -15 472 -15 q 294 2 359 -15 q 179 61 229 19 q 101 170 130 102 q 72 337 72 237 q 99 495 72 423 q 176 620 126 568 q 297 700 226 672 q 458 729 369 729 q 591 720 536 729 q 702 697 647 712 l 702 -327 q 668 -331 687 -330 q 634 -333 650 -333 q 600 -331 619 -333 q 566 -327 581 -330 l 566 0 m 566 602 q 534 609 547 607 q 509 611 520 611 q 485 613 497 612 q 458 613 473 613 q 351 593 397 613 q 275 534 305 572 q 230 445 245 497 q 215 331 215 394 q 231 225 215 269 q 278 152 248 180 q 348 111 308 123 q 437 98 388 98 q 506 104 473 98 q 566 116 538 109 l 566 602 "},"Ö":{"x_min":81.734375,"x_max":924.859375,"ha":1006,"o":"m 503 -16 q 316 21 395 -16 q 185 128 237 59 q 107 291 133 197 q 81 498 81 386 q 107 705 81 611 q 185 868 133 800 q 316 976 237 937 q 503 1015 395 1015 q 691 976 612 1015 q 822 868 770 937 q 899 705 874 800 q 924 498 924 611 q 899 291 924 386 q 822 128 874 197 q 691 21 770 59 q 503 -16 612 -16 m 503 105 q 624 132 573 105 q 708 211 674 159 q 758 334 741 262 q 774 498 774 406 q 758 661 774 588 q 708 785 741 734 q 624 863 674 836 q 503 890 573 890 q 383 863 434 890 q 299 785 333 836 q 249 661 266 734 q 233 498 233 588 q 249 334 233 406 q 299 211 266 262 q 383 132 333 159 q 503 105 434 105 m 279 1095 q 274 1165 274 1130 q 279 1236 274 1200 q 316 1240 298 1238 q 351 1241 334 1241 q 388 1240 369 1241 q 424 1236 408 1238 q 430 1166 430 1204 q 424 1095 430 1127 q 389 1091 408 1093 q 352 1090 370 1090 q 317 1091 335 1090 q 279 1095 298 1093 m 577 1095 q 572 1130 574 1113 q 570 1165 570 1147 q 577 1236 570 1197 q 613 1240 594 1238 q 649 1241 631 1241 q 685 1240 666 1241 q 723 1236 704 1238 q 727 1166 727 1200 q 723 1095 727 1130 q 685 1091 704 1093 q 649 1090 667 1090 q 613 1091 633 1090 q 577 1095 594 1093 "},"z":{"x_min":40.28125,"x_max":626.4375,"ha":663,"o":"m 40 19 l 415 602 l 84 602 q 80 658 80 627 q 84 712 80 687 l 619 712 l 626 694 l 248 109 l 602 109 q 607 52 607 81 q 602 0 607 25 l 47 0 l 40 19 "},"ã":{"x_min":66.671875,"x_max":622.265625,"ha":718,"o":"m 487 334 q 434 340 466 337 q 380 343 402 343 q 249 311 294 343 q 204 213 204 279 q 219 148 204 172 q 257 112 234 125 q 308 97 280 100 q 361 94 336 94 q 427 97 393 94 q 487 108 461 101 l 487 334 m 487 469 q 445 583 487 551 q 325 615 404 615 q 234 607 276 615 q 151 587 191 600 q 125 697 125 633 q 229 720 172 712 q 338 729 286 729 q 550 666 477 729 q 622 463 622 602 l 622 18 q 504 -4 573 6 q 362 -16 434 -16 q 239 -4 294 -16 q 146 36 184 8 q 87 106 108 63 q 66 211 66 150 q 90 316 66 270 q 156 391 115 361 q 252 435 198 420 q 366 450 306 450 q 439 447 411 450 q 487 443 468 445 l 487 469 m 118 927 q 172 975 139 955 q 251 995 205 995 q 307 986 280 995 q 357 965 333 976 q 407 944 382 954 q 460 934 432 934 q 503 943 483 934 q 553 977 523 951 q 597 893 583 940 q 541 847 575 866 q 462 827 507 827 q 407 837 433 827 q 355 858 380 847 q 306 879 330 869 q 255 888 282 888 q 208 879 228 888 q 161 845 189 869 q 135 885 146 865 q 118 927 123 905 "},"æ":{"x_min":61.109375,"x_max":1095.921875,"ha":1165,"o":"m 480 469 q 440 583 480 551 q 320 615 400 615 q 229 607 273 615 q 147 587 186 600 q 120 697 120 633 q 224 720 168 712 q 334 729 280 729 q 474 702 418 729 q 568 618 530 675 q 665 698 607 668 q 801 729 723 729 q 928 704 873 729 q 1020 635 983 679 q 1077 531 1058 591 q 1095 400 1095 470 q 1094 360 1095 381 q 1090 323 1093 338 l 613 323 q 670 149 613 201 q 844 97 727 97 q 938 106 894 97 q 1026 131 982 115 q 1043 81 1036 111 q 1051 22 1050 51 q 832 -16 957 -16 q 697 0 759 -16 q 588 51 634 15 q 478 3 544 23 q 336 -16 412 -16 q 225 -4 276 -16 q 138 36 175 8 q 81 106 102 63 q 61 211 61 150 q 85 315 61 270 q 151 388 109 359 q 247 432 193 418 q 362 447 301 447 q 427 445 398 447 q 480 440 456 443 l 480 469 m 477 330 q 430 335 456 333 q 380 337 404 337 q 246 307 293 337 q 200 209 200 277 q 215 145 200 169 q 252 110 230 122 q 300 95 275 98 q 348 91 326 91 q 438 101 393 91 q 518 134 484 111 q 489 213 498 168 q 479 304 480 258 l 477 330 m 962 426 q 952 500 962 465 q 922 562 943 536 q 872 604 902 588 q 800 619 841 619 q 669 568 713 619 q 615 426 625 518 l 962 426 "},"®":{"x_min":70.84375,"x_max":1101.484375,"ha":1175,"o":"m 415 775 q 485 782 451 779 q 559 784 519 784 q 651 775 609 784 q 722 745 693 765 q 770 694 752 726 q 787 619 787 662 q 757 518 787 556 q 690 462 726 480 l 836 241 q 800 238 816 238 q 769 237 784 237 q 715 241 740 237 l 556 488 l 584 501 q 647 542 618 516 q 677 608 677 568 q 648 670 677 648 q 572 693 619 693 q 548 692 561 693 q 520 688 536 691 l 520 240 q 469 236 500 236 q 415 240 440 236 l 415 775 m 586 72 q 759 105 683 72 q 889 195 836 138 q 971 330 943 252 q 1000 498 1000 408 q 971 665 1000 587 q 889 800 943 743 q 759 890 836 857 q 586 923 683 923 q 413 890 490 923 q 283 800 336 857 q 202 665 230 743 q 173 498 173 587 q 202 330 173 408 q 283 195 230 252 q 413 105 336 138 q 586 72 490 72 m 586 -18 q 375 21 470 -18 q 213 129 280 61 q 108 293 145 198 q 70 498 70 387 q 108 703 70 608 q 213 867 145 798 q 375 975 280 936 q 586 1015 470 1015 q 796 976 701 1015 q 959 868 891 937 q 1063 704 1026 798 q 1101 498 1101 609 q 1063 293 1101 387 q 959 129 1026 198 q 796 21 891 61 q 586 -18 701 -18 "},"É":{"x_min":122.234375,"x_max":686.171875,"ha":745,"o":"m 122 998 l 670 998 q 675 937 675 970 q 674 905 675 922 q 670 875 673 888 l 263 875 l 263 588 l 588 588 q 593 559 591 575 q 594 527 594 543 q 593 495 594 512 q 588 465 591 479 l 263 465 l 263 123 l 682 123 q 686 62 686 95 q 685 30 686 47 q 682 0 684 13 l 122 0 l 122 998 m 416 1082 q 378 1077 398 1079 q 340 1076 359 1076 q 303 1077 320 1076 q 267 1082 287 1079 l 415 1232 q 462 1236 437 1234 q 512 1238 487 1238 q 562 1236 538 1238 q 605 1232 585 1234 l 416 1082 "},"~":{"x_min":26.390625,"x_max":637.546875,"ha":663,"o":"m 26 568 q 104 625 54 601 q 209 650 154 650 q 272 641 241 650 q 334 621 302 632 q 396 602 365 611 q 459 594 427 594 q 516 604 487 594 q 579 645 544 613 q 614 600 601 625 q 637 550 627 576 q 562 497 605 518 q 461 477 519 477 q 397 486 429 477 q 335 504 366 494 q 272 524 304 515 q 212 533 241 533 q 149 522 179 533 q 86 479 119 511 q 26 568 41 518 "},"³":{"x_min":108.34375,"x_max":527.8125,"ha":625,"o":"m 501 982 l 512 961 l 376 763 q 442 743 413 759 q 489 706 470 727 q 518 658 508 684 q 527 607 527 632 q 508 522 527 559 q 454 460 488 486 q 373 421 420 434 q 272 408 326 408 q 227 409 247 408 q 188 413 206 411 q 150 420 169 416 q 108 431 131 425 q 118 481 111 456 q 136 526 126 506 q 204 509 172 515 q 268 502 236 502 q 366 527 325 502 q 406 604 406 551 q 370 669 406 648 q 288 690 334 690 q 262 689 275 690 q 234 684 250 688 l 219 701 l 340 886 l 145 886 q 141 933 141 911 q 145 982 141 957 l 501 982 "},"¡":{"x_min":118.0625,"x_max":284.75,"ha":403,"o":"m 273 -283 q 236 -287 254 -286 q 201 -288 219 -288 q 163 -287 181 -288 q 125 -283 144 -286 l 133 415 q 166 419 150 418 q 198 420 183 420 q 231 419 215 420 q 263 415 248 418 l 273 -283 m 279 715 q 283 676 281 695 q 284 637 284 657 q 283 598 284 618 q 279 559 281 579 q 240 555 259 556 q 201 554 220 554 q 162 555 181 554 q 123 559 143 556 q 119 597 120 579 q 118 636 118 616 q 119 675 118 655 q 123 715 120 695 q 161 719 143 718 q 200 720 180 720 q 239 719 219 720 q 279 715 259 718 "},"[":{"x_min":69.453125,"x_max":373.640625,"ha":443,"o":"m 69 1055 l 368 1055 q 372 1027 370 1040 q 373 998 373 1013 q 372 969 373 983 q 368 943 370 955 l 205 943 l 205 -120 l 368 -120 q 372 -147 370 -134 q 373 -176 373 -161 q 372 -205 373 -191 q 368 -233 370 -219 l 69 -233 l 69 1055 "},"L":{"x_min":122.234375,"x_max":658.390625,"ha":688,"o":"m 122 998 q 154 1002 137 1001 q 191 1004 172 1004 q 227 1002 209 1004 q 262 998 245 1001 l 262 125 l 654 125 q 657 93 657 109 q 658 62 658 76 q 654 0 658 29 l 122 0 l 122 998 "}," ":{"x_min":0,"x_max":0,"ha":329},"%":{"x_min":61.171875,"x_max":1389.4375,"ha":1458,"o":"m 997 983 q 1031 987 1014 986 q 1065 988 1049 988 q 1102 987 1083 988 q 1137 983 1121 986 l 467 1 q 430 -2 447 -1 q 397 -4 414 -4 q 326 1 358 -4 l 997 983 m 1261 279 q 1230 421 1261 370 q 1128 472 1199 472 q 1027 421 1060 472 q 994 279 994 370 q 1026 135 994 186 q 1128 84 1057 84 q 1229 135 1196 84 q 1261 279 1261 186 m 867 279 q 883 392 867 338 q 931 486 899 445 q 1012 550 963 526 q 1128 573 1061 573 q 1243 550 1194 573 q 1324 486 1292 526 q 1373 392 1357 445 q 1389 279 1389 338 q 1373 164 1389 218 q 1324 71 1357 111 q 1243 8 1292 31 q 1128 -15 1194 -15 q 1012 8 1061 -15 q 931 71 963 31 q 883 164 899 111 q 867 279 867 218 m 455 704 q 424 846 455 795 q 322 897 393 897 q 221 846 254 897 q 188 704 188 795 q 220 560 188 611 q 322 509 251 509 q 423 560 390 509 q 455 704 455 611 m 61 704 q 77 817 61 763 q 125 911 93 870 q 206 975 157 951 q 322 998 255 998 q 437 975 388 998 q 518 911 486 951 q 567 817 551 870 q 583 704 583 763 q 567 589 583 643 q 518 496 551 536 q 437 433 486 456 q 322 409 388 409 q 206 433 255 409 q 125 496 157 456 q 77 589 93 536 q 61 704 61 643 "},"P":{"x_min":122.234375,"x_max":733.390625,"ha":786,"o":"m 122 1000 q 171 1005 143 1002 q 231 1010 200 1008 q 293 1013 262 1012 q 354 1015 325 1015 q 499 1000 430 1015 q 620 947 568 984 q 702 847 672 909 q 733 693 733 786 q 700 531 733 595 q 614 427 668 466 q 493 372 561 388 q 354 356 425 356 q 307 357 327 356 q 263 361 287 358 l 263 0 q 193 -4 230 -4 q 157 -3 176 -4 q 122 0 138 -2 l 122 1000 m 263 484 q 302 480 286 481 q 351 479 319 479 q 436 488 394 479 q 512 520 479 497 q 566 585 545 544 q 586 691 586 626 q 568 787 586 748 q 520 850 551 826 q 447 883 490 873 q 354 893 404 893 q 263 888 302 893 l 263 484 "},"À":{"x_min":22.21875,"x_max":833.40625,"ha":857,"o":"m 613 230 l 234 230 l 166 0 q 130 -4 148 -2 q 94 -5 112 -5 q 56 -4 75 -5 q 22 0 37 -2 l 347 998 q 386 1002 365 1001 q 429 1004 406 1004 q 469 1002 448 1004 q 509 998 490 1001 l 833 0 q 795 -4 816 -2 q 755 -5 775 -5 q 718 -4 737 -5 q 683 0 700 -2 l 613 230 m 272 354 l 576 354 l 423 863 l 272 354 m 185 1232 q 229 1236 205 1234 q 278 1238 253 1238 q 329 1236 303 1238 q 377 1232 355 1234 l 523 1082 q 452 1076 491 1076 q 413 1077 433 1076 q 376 1082 394 1079 l 185 1232 "},"_":{"x_min":1.390625,"x_max":700.0625,"ha":701,"o":"m 694 -20 q 700 -72 700 -44 q 694 -122 700 -98 l 8 -122 q 2 -95 4 -108 q 1 -69 1 -83 q 2 -45 1 -58 q 8 -20 4 -33 l 694 -20 "},"ñ":{"x_min":111.125,"x_max":707,"ha":803,"o":"m 111 712 q 140 716 126 715 q 170 718 155 718 q 199 716 186 718 q 227 712 212 715 q 236 656 231 691 q 240 597 240 620 q 275 644 254 620 q 325 686 297 668 q 388 717 352 705 q 468 729 425 729 q 648 659 590 729 q 707 451 707 588 l 707 0 q 672 -4 691 -2 q 637 -5 652 -5 q 603 -4 622 -5 q 569 0 584 -2 l 569 413 q 538 559 569 512 q 441 605 508 605 q 368 591 402 605 q 306 548 333 577 q 264 472 280 519 q 248 361 248 426 l 248 0 q 214 -4 233 -2 q 180 -5 195 -5 q 145 -4 165 -5 q 111 0 126 -2 l 111 712 m 164 927 q 218 975 185 955 q 297 995 251 995 q 353 986 326 995 q 403 965 379 976 q 453 944 428 954 q 506 934 478 934 q 549 943 529 934 q 599 977 569 951 q 643 893 629 940 q 587 847 621 866 q 508 827 553 827 q 453 837 479 827 q 401 858 426 847 q 352 879 376 869 q 301 888 328 888 q 254 879 274 888 q 207 845 235 869 q 181 885 192 865 q 164 927 169 905 "},"+":{"x_min":119.453125,"x_max":713.953125,"ha":833,"o":"m 355 426 l 125 426 q 119 488 119 454 q 125 550 119 522 l 355 550 l 355 802 q 385 807 370 805 q 416 808 400 808 q 447 807 431 808 q 479 802 462 805 l 479 550 l 708 550 q 712 519 711 534 q 713 488 713 504 q 712 457 713 473 q 708 426 711 441 l 479 426 l 479 175 q 447 170 462 172 q 416 169 431 169 q 355 175 381 169 l 355 426 "},"½":{"x_min":85.734375,"x_max":1355.59375,"ha":1458,"o":"m 997 983 q 1031 987 1014 986 q 1065 988 1049 988 q 1102 987 1083 988 q 1137 983 1121 986 l 467 1 q 430 -2 447 -1 q 397 -4 414 -4 q 326 1 358 -4 l 997 983 m 131 788 q 103 829 113 807 q 85 877 92 851 l 353 987 l 377 987 l 377 523 l 506 523 q 512 475 512 500 q 506 425 512 448 l 127 425 q 121 448 123 437 q 120 475 120 459 q 121 499 120 487 q 127 523 123 511 l 260 523 l 260 841 l 131 788 m 1140 101 l 1352 101 q 1354 77 1354 89 q 1355 51 1355 64 q 1354 24 1355 37 q 1352 1 1354 12 l 923 1 l 916 17 q 1011 115 961 64 q 1102 214 1061 166 q 1171 305 1144 262 q 1198 383 1198 348 q 1165 443 1198 427 q 1083 459 1131 459 q 1015 452 1041 459 q 965 435 988 445 q 950 479 958 453 q 938 534 943 505 q 1019 557 981 549 q 1102 564 1056 564 q 1261 520 1201 564 q 1320 392 1320 476 q 1288 273 1320 330 q 1194 155 1256 217 l 1140 101 "},"Æ":{"x_min":-6.9375,"x_max":1222.3125,"ha":1281,"o":"m 151 0 q 111 -4 131 -2 q 72 -5 91 -5 q 29 -4 50 -5 q -6 0 9 -2 l 579 998 l 1205 998 q 1209 968 1208 983 q 1211 937 1211 952 q 1209 904 1211 922 q 1205 873 1208 887 l 798 873 l 798 572 l 1125 572 q 1129 511 1129 544 q 1128 479 1129 495 q 1125 448 1127 462 l 798 448 l 798 123 l 1216 123 q 1220 93 1219 109 q 1222 62 1222 77 q 1220 30 1222 47 q 1216 0 1219 13 l 657 0 l 657 233 l 283 233 l 151 0 m 657 884 l 650 884 l 350 355 l 657 355 l 657 884 "},"Ë":{"x_min":122.234375,"x_max":686.171875,"ha":745,"o":"m 122 998 l 670 998 q 675 937 675 970 q 674 905 675 922 q 670 875 673 888 l 263 875 l 263 588 l 588 588 q 593 559 591 575 q 594 527 594 543 q 593 495 594 512 q 588 465 591 479 l 263 465 l 263 123 l 682 123 q 686 62 686 95 q 685 30 686 47 q 682 0 684 13 l 122 0 l 122 998 m 171 1095 q 166 1165 166 1130 q 171 1236 166 1200 q 208 1240 190 1238 q 243 1241 226 1241 q 280 1240 261 1241 q 316 1236 300 1238 q 322 1166 322 1204 q 316 1095 322 1127 q 281 1091 300 1093 q 244 1090 262 1090 q 209 1091 227 1090 q 171 1095 190 1093 m 469 1095 q 464 1130 466 1113 q 462 1165 462 1147 q 469 1236 462 1197 q 505 1240 486 1238 q 541 1241 523 1241 q 577 1240 558 1241 q 615 1236 596 1238 q 619 1166 619 1200 q 615 1095 619 1130 q 577 1091 596 1093 q 541 1090 559 1090 q 505 1091 525 1090 q 469 1095 486 1093 "},"'":{"x_min":88.890625,"x_max":220.84375,"ha":310,"o":"m 88 998 q 121 1002 104 1001 q 155 1004 138 1004 q 188 1002 172 1004 q 220 998 205 1001 l 220 618 q 155 613 188 613 q 88 618 119 613 l 88 998 "},"ª":{"x_min":86.125,"x_max":541.703125,"ha":695,"o":"m 426 683 q 388 687 411 686 q 347 688 366 688 q 236 665 276 688 q 197 593 197 641 q 210 546 197 563 q 243 520 223 529 q 286 508 262 511 q 330 505 309 505 q 426 513 381 505 l 426 683 m 426 791 q 393 875 426 852 q 294 898 359 898 q 223 893 258 898 q 156 877 188 887 q 139 922 145 897 q 133 970 133 947 q 218 988 170 982 q 309 995 265 995 q 482 945 423 995 q 541 787 541 895 l 541 440 q 444 421 502 430 q 327 412 386 412 q 147 454 209 412 q 86 591 86 495 q 106 675 86 640 q 159 734 126 711 q 237 768 193 757 q 331 779 281 779 q 383 777 359 779 q 426 773 406 776 l 426 791 "},"ð":{"x_min":70.84375,"x_max":734.78125,"ha":807,"o":"m 347 870 q 280 893 315 886 q 206 907 245 901 q 200 955 200 926 q 203 988 200 970 q 212 1022 206 1007 q 349 998 286 1018 q 465 947 412 979 l 587 1025 q 617 990 604 1011 q 640 950 630 969 q 592 920 616 934 q 543 890 568 905 q 686 671 637 802 q 734 384 734 540 q 714 218 734 293 q 653 92 694 144 q 550 11 612 40 q 402 -16 487 -16 q 255 9 318 -16 q 152 81 193 34 q 90 190 111 127 q 70 329 70 254 q 90 466 70 402 q 150 576 111 529 q 247 650 188 623 q 381 676 305 676 q 484 659 434 676 q 566 609 534 641 q 509 733 538 683 q 434 819 479 783 l 298 734 q 269 770 281 750 q 250 809 256 790 l 347 870 m 402 90 q 544 153 500 90 q 588 329 588 216 q 544 506 588 447 q 402 565 500 565 q 263 506 311 565 q 215 329 215 447 q 260 153 215 216 q 402 90 305 90 "},"T":{"x_min":29.171875,"x_max":701.4375,"ha":731,"o":"m 294 875 l 34 875 q 30 905 31 888 q 29 937 29 922 q 30 968 29 952 q 34 998 31 984 l 695 998 q 700 969 698 984 q 701 938 701 954 q 700 906 701 923 q 695 875 698 888 l 436 875 l 436 0 q 366 -4 404 -4 q 294 0 327 -4 l 294 875 "},"Þ":{"x_min":120.84375,"x_max":733.390625,"ha":807,"o":"m 262 843 q 306 846 286 845 q 350 847 326 847 q 491 831 422 847 q 613 776 559 815 q 700 672 668 737 q 733 511 733 608 q 700 350 733 415 q 613 247 668 286 q 491 193 559 209 q 350 177 422 177 q 306 178 326 177 q 262 180 286 179 l 262 0 q 227 -3 245 -2 q 191 -4 208 -4 q 154 -3 173 -4 q 120 0 136 -2 l 120 998 q 191 1002 154 1002 q 227 1002 208 1002 q 262 998 245 1001 l 262 843 m 350 300 q 435 308 393 300 q 511 340 477 316 q 565 405 544 363 q 586 512 586 447 q 565 619 586 577 q 511 684 544 661 q 435 715 477 707 q 350 723 393 723 q 306 722 322 723 q 262 718 290 720 l 262 305 q 304 301 288 302 q 350 300 320 300 "},"j":{"x_min":-55.5625,"x_max":291.6875,"ha":403,"o":"m 156 604 l 66 604 q 62 629 63 615 q 61 658 61 644 q 62 686 61 672 q 66 712 63 701 l 291 712 l 291 -40 q 275 -144 291 -102 q 228 -211 258 -186 q 158 -248 198 -237 q 70 -259 118 -259 q -55 -241 -4 -259 q -48 -187 -54 -215 q -33 -137 -43 -159 q 44 -148 0 -148 q 81 -145 62 -148 q 118 -131 101 -143 q 145 -95 134 -119 q 156 -30 156 -72 l 156 604 m 123 870 q 119 907 120 890 q 118 940 118 925 q 119 972 118 955 q 123 1008 120 990 q 162 1013 141 1011 q 198 1015 183 1015 q 234 1013 213 1015 q 270 1008 254 1011 q 275 972 273 990 q 276 940 276 955 q 275 907 276 925 q 270 870 273 890 q 234 866 254 868 q 198 863 213 863 q 162 866 183 863 q 123 870 141 868 "},"1":{"x_min":137.515625,"x_max":730.609375,"ha":833,"o":"m 190 623 q 159 670 170 647 q 137 726 148 694 l 506 902 l 527 902 l 527 118 l 726 118 q 730 59 730 86 q 726 0 730 30 l 183 0 q 177 59 177 27 q 183 118 177 90 l 391 118 l 391 715 l 190 623 "},"ä":{"x_min":66.671875,"x_max":622.265625,"ha":718,"o":"m 487 334 q 434 340 466 337 q 380 343 402 343 q 249 311 294 343 q 204 213 204 279 q 219 148 204 172 q 257 112 234 125 q 308 97 280 100 q 361 94 336 94 q 427 97 393 94 q 487 108 461 101 l 487 334 m 487 469 q 445 583 487 551 q 325 615 404 615 q 234 607 276 615 q 151 587 191 600 q 125 697 125 633 q 229 720 172 712 q 338 729 286 729 q 550 666 477 729 q 622 463 622 602 l 622 18 q 504 -4 573 6 q 362 -16 434 -16 q 239 -4 294 -16 q 146 36 184 8 q 87 106 108 63 q 66 211 66 150 q 90 316 66 270 q 156 391 115 361 q 252 435 198 420 q 366 450 306 450 q 439 447 411 450 q 487 443 468 445 l 487 469 m 151 838 q 147 873 148 857 q 146 908 146 890 q 147 942 146 925 q 151 977 148 959 q 187 982 168 980 q 222 983 205 983 q 256 982 237 983 q 293 977 275 980 q 298 908 298 945 q 297 874 298 891 q 293 838 296 857 q 222 834 257 834 q 187 835 207 834 q 151 838 168 836 m 435 838 q 429 908 429 870 q 430 942 429 925 q 435 977 432 959 q 470 982 451 980 q 504 983 489 983 q 539 982 521 983 q 576 977 558 980 q 580 908 580 941 q 576 838 580 873 q 505 834 540 834 q 471 835 490 834 q 435 838 451 836 "},"<":{"x_min":123.625,"x_max":716.71875,"ha":833,"o":"m 709 786 q 716 722 716 747 q 715 685 716 702 q 711 654 713 668 l 255 477 l 711 308 q 715 276 713 293 q 716 243 716 259 q 715 204 716 222 q 709 169 713 186 l 131 404 q 123 480 123 438 q 131 551 123 518 l 709 786 "},"£":{"x_min":125.015625,"x_max":736.171875,"ha":833,"o":"m 137 16 l 163 41 q 209 100 190 66 q 240 169 229 133 q 258 239 252 205 q 263 301 263 273 q 260 361 263 331 q 250 423 256 391 l 129 423 q 125 477 125 448 q 129 531 125 504 l 227 531 q 214 613 220 572 q 208 697 208 654 q 227 811 208 757 q 284 908 245 866 q 381 975 322 950 q 522 1000 440 1000 q 645 988 595 1000 q 730 962 694 977 q 720 907 727 934 q 698 847 713 879 q 620 872 659 863 q 530 880 581 880 q 447 865 481 880 q 393 823 413 850 q 362 761 372 797 q 352 687 352 726 q 359 606 352 644 q 373 531 365 569 l 633 531 q 637 475 637 504 q 633 423 637 448 l 393 423 q 402 372 398 398 q 405 320 405 347 q 393 211 405 262 q 354 125 380 161 l 732 125 q 735 93 734 109 q 736 62 736 76 q 732 0 736 29 l 143 0 l 137 16 "},"¹":{"x_min":109.734375,"x_max":536.15625,"ha":625,"o":"m 155 788 q 127 829 137 807 q 109 877 116 851 l 377 987 l 401 987 l 401 523 l 530 523 q 536 475 536 500 q 530 425 536 448 l 151 425 q 145 448 147 437 q 144 475 144 459 q 145 499 144 487 q 151 523 147 511 l 284 523 l 284 841 l 155 788 "},"t":{"x_min":23.609375,"x_max":473.65625,"ha":497,"o":"m 137 602 l 29 602 l 23 622 l 262 888 l 273 888 l 273 712 l 454 712 q 459 659 459 688 q 458 630 459 644 q 454 602 456 616 l 273 602 l 273 277 q 278 184 273 219 q 295 131 283 150 q 327 106 306 112 q 377 100 347 100 q 422 103 401 100 q 459 111 443 106 q 471 54 469 83 q 473 2 473 25 q 415 -7 445 -4 q 350 -11 384 -11 q 193 37 250 -11 q 137 198 137 86 l 137 602 "},"¬":{"x_min":120.84375,"x_max":705.609375,"ha":833,"o":"m 705 536 l 705 148 q 675 144 693 145 q 643 143 658 143 q 609 144 627 143 q 577 148 591 145 l 577 408 l 126 408 q 122 438 123 420 q 120 470 120 455 q 122 504 120 486 q 126 536 123 522 l 705 536 "},"ù":{"x_min":102.78125,"x_max":691.71875,"ha":797,"o":"m 102 712 q 137 716 118 715 q 170 718 156 718 q 205 716 186 718 q 240 712 225 715 l 240 322 q 252 211 240 255 q 290 143 265 168 q 351 108 315 118 q 434 98 387 98 q 555 113 505 98 l 555 712 q 589 716 570 715 q 623 718 608 718 q 657 716 638 718 q 691 712 676 715 l 691 22 q 575 -4 643 8 q 436 -16 508 -16 q 307 -4 368 -16 q 201 43 247 6 q 129 144 155 79 q 102 316 102 209 l 102 712 m 179 1001 q 220 1005 200 1004 q 266 1007 241 1007 q 311 1005 288 1007 q 355 1001 334 1004 l 515 825 q 450 819 483 819 q 410 820 429 819 q 376 825 391 822 l 179 1001 "},"W":{"x_min":37.5,"x_max":1241.765625,"ha":1279,"o":"m 37 998 q 75 1002 52 1001 q 118 1004 98 1004 q 157 1002 137 1004 q 194 998 177 1001 l 365 166 l 570 998 q 607 1002 587 1001 q 645 1004 627 1004 q 683 1002 662 1004 q 719 998 704 1001 l 926 158 l 1100 998 q 1132 1002 1115 1001 q 1166 1004 1150 1004 q 1206 1002 1186 1004 q 1241 998 1226 1001 l 1001 0 q 962 -4 984 -2 q 922 -5 940 -5 q 879 -4 902 -5 q 836 0 855 -2 l 638 782 l 438 0 q 396 -4 419 -2 q 354 -5 373 -5 q 316 -4 337 -5 q 277 0 294 -2 l 37 998 "},"ï":{"x_min":-16.828125,"x_max":417.9375,"ha":400,"o":"m -11 838 q -15 873 -14 857 q -16 908 -16 890 q -15 942 -16 925 q -11 977 -14 959 q 24 982 5 980 q 59 983 42 983 q 93 982 74 983 q 130 977 112 980 q 135 908 135 945 q 134 874 135 891 q 130 838 133 857 q 59 834 94 834 q 24 835 44 834 q -11 838 5 836 m 272 838 q 266 908 266 870 q 267 942 266 925 q 272 977 269 959 q 307 982 288 980 q 341 983 326 983 q 376 982 358 983 q 413 977 395 980 q 417 908 417 941 q 413 838 417 873 q 342 834 377 834 q 308 835 327 834 q 272 838 288 836 m 152 604 l 62 604 q 58 629 59 615 q 56 658 56 644 q 58 686 56 672 q 62 712 59 701 l 287 712 l 287 0 q 253 -4 272 -2 q 219 -5 234 -5 q 186 -4 205 -5 q 152 0 168 -2 l 152 604 "},">":{"x_min":116.671875,"x_max":711.171875,"ha":833,"o":"m 123 169 q 119 204 120 188 q 118 233 118 220 q 119 270 118 252 q 123 301 120 287 l 577 477 l 123 647 q 118 679 119 662 q 116 712 116 697 q 118 752 116 734 q 123 786 120 770 l 702 551 q 708 515 705 533 q 711 475 711 497 q 702 404 711 437 l 123 169 "},"v":{"x_min":23.609375,"x_max":713.953125,"ha":738,"o":"m 23 712 q 63 716 43 715 q 101 718 84 718 q 140 716 119 718 q 177 712 162 715 l 372 125 l 568 712 q 602 716 583 715 q 640 718 622 718 q 675 716 655 718 q 713 712 694 715 l 436 0 q 400 -4 418 -2 q 366 -5 381 -5 q 334 -4 351 -5 q 300 0 316 -2 l 23 712 "},"û":{"x_min":102.78125,"x_max":691.71875,"ha":797,"o":"m 102 712 q 137 716 118 715 q 170 718 156 718 q 205 716 186 718 q 240 712 225 715 l 240 322 q 252 211 240 255 q 290 143 265 168 q 351 108 315 118 q 434 98 387 98 q 555 113 505 98 l 555 712 q 589 716 570 715 q 623 718 608 718 q 657 716 638 718 q 691 712 676 715 l 691 22 q 575 -4 643 8 q 436 -16 508 -16 q 307 -4 368 -16 q 201 43 247 6 q 129 144 155 79 q 102 316 102 209 l 102 712 m 628 825 q 600 820 616 822 q 566 819 584 819 q 526 820 548 819 q 487 825 505 822 l 396 936 l 306 825 q 271 820 291 822 q 232 819 251 819 q 164 825 192 819 l 316 1001 q 357 1005 334 1004 q 401 1007 380 1007 q 437 1005 416 1007 q 478 1000 459 1004 l 628 825 "},"Ò":{"x_min":81.734375,"x_max":924.859375,"ha":1006,"o":"m 503 -16 q 316 21 395 -16 q 185 128 237 59 q 107 291 133 197 q 81 498 81 386 q 107 705 81 611 q 185 868 133 800 q 316 976 237 937 q 503 1015 395 1015 q 691 976 612 1015 q 822 868 770 937 q 899 705 874 800 q 924 498 924 611 q 899 291 924 386 q 822 128 874 197 q 691 21 770 59 q 503 -16 612 -16 m 503 105 q 624 132 573 105 q 708 211 674 159 q 758 334 741 262 q 774 498 774 406 q 758 661 774 588 q 708 785 741 734 q 624 863 674 836 q 503 890 573 890 q 383 863 434 890 q 299 785 333 836 q 249 661 266 734 q 233 498 233 588 q 249 334 233 406 q 299 211 266 262 q 383 132 333 159 q 503 105 434 105 m 256 1232 q 300 1236 276 1234 q 349 1238 324 1238 q 400 1236 374 1238 q 448 1232 426 1234 l 594 1082 q 523 1076 562 1076 q 484 1077 504 1076 q 447 1082 465 1079 l 256 1232 "},"&":{"x_min":80.5625,"x_max":1051.46875,"ha":1057,"o":"m 256 770 q 296 675 256 711 q 423 640 336 640 l 726 640 l 854 815 l 865 815 l 865 640 l 1045 640 q 1051 586 1051 616 q 1050 556 1051 570 q 1045 527 1048 541 l 865 527 l 865 322 q 836 173 865 237 q 752 67 807 109 q 622 4 698 25 q 455 -16 547 -16 q 313 0 381 -16 q 193 52 245 16 q 111 145 141 88 q 80 283 80 202 q 93 373 80 329 q 131 456 106 418 q 188 522 155 494 q 258 566 220 551 q 157 642 198 593 q 116 775 116 691 q 140 881 116 836 q 204 956 163 926 q 299 1000 244 986 q 415 1015 354 1015 q 495 1009 451 1015 q 588 987 540 1004 q 580 931 587 955 q 558 883 573 907 q 488 899 522 894 q 423 904 455 904 q 346 892 377 904 q 295 861 315 880 q 265 819 275 843 q 256 770 256 795 m 466 108 q 599 129 547 108 q 680 184 651 150 q 720 265 709 219 q 732 359 732 311 l 732 525 l 450 525 q 359 507 400 525 q 291 459 319 490 q 248 389 263 429 q 233 305 233 350 q 293 159 233 209 q 466 108 352 108 "},"Ð":{"x_min":16.671875,"x_max":902.84375,"ha":983,"o":"m 136 459 l 22 459 q 18 484 19 470 q 16 511 16 498 q 18 538 16 523 q 22 563 19 552 l 136 563 l 136 998 q 250 1009 183 1004 q 380 1013 316 1013 q 772 880 643 1013 q 902 497 902 747 q 770 109 902 236 q 375 -16 637 -16 q 245 -11 309 -16 q 136 0 181 -6 l 136 459 m 277 563 l 502 563 q 506 538 505 552 q 508 511 508 523 q 506 485 508 500 q 502 459 505 470 l 277 459 l 277 116 q 325 111 297 113 q 386 109 354 109 q 535 128 468 109 q 651 191 602 147 q 726 311 700 236 q 752 501 752 387 q 726 679 752 605 q 652 799 700 752 q 537 866 604 845 q 390 887 470 887 q 332 886 363 887 q 277 882 301 886 l 277 563 "},"I":{"x_min":122.234375,"x_max":263.90625,"ha":386,"o":"m 122 998 q 156 1002 138 1001 q 193 1004 175 1004 q 229 1002 211 1004 q 263 998 247 1001 l 263 0 q 229 -4 247 -2 q 193 -5 212 -5 q 156 -4 175 -5 q 122 0 137 -2 l 122 998 "},"G":{"x_min":81.953125,"x_max":840.34375,"ha":946,"o":"m 700 516 q 734 520 716 519 q 770 522 752 522 q 807 520 788 522 q 840 516 825 519 l 840 29 q 776 7 811 16 q 704 -6 741 -1 q 629 -13 666 -11 q 558 -16 591 -16 q 358 18 447 -16 q 208 118 269 52 q 114 279 147 184 q 81 493 81 373 q 115 709 81 612 q 210 873 148 805 q 357 978 272 941 q 547 1015 443 1015 q 684 1004 626 1015 q 790 976 743 994 q 778 917 787 944 q 757 859 769 890 q 672 882 718 872 q 559 891 627 891 q 425 865 486 891 q 322 788 365 838 q 256 663 280 737 q 233 493 233 588 q 257 322 233 394 q 326 203 281 251 q 431 132 370 155 q 565 109 491 109 q 643 114 609 109 q 700 126 676 119 l 700 516 "},"`":{"x_min":179.1875,"x_max":515.3125,"ha":695,"o":"m 179 1001 q 220 1005 200 1004 q 266 1007 241 1007 q 311 1005 288 1007 q 355 1001 334 1004 l 515 825 q 450 819 483 819 q 410 820 429 819 q 376 825 391 822 l 179 1001 "},"·":{"x_min":86.125,"x_max":248.625,"ha":335,"o":"m 91 306 q 87 344 88 326 q 86 381 86 362 q 87 420 86 401 q 91 458 88 438 q 129 462 111 461 q 166 463 147 463 q 204 462 186 463 q 243 458 223 461 q 247 420 245 438 q 248 383 248 402 q 247 345 248 363 q 243 306 245 326 q 205 302 223 304 q 168 301 187 301 q 129 302 148 301 q 91 306 111 304 "},"r":{"x_min":111.125,"x_max":488.921875,"ha":517,"o":"m 111 712 q 140 716 126 715 q 169 718 154 718 q 200 716 184 718 q 227 712 215 715 q 236 657 231 691 q 240 600 240 623 q 317 682 269 647 q 440 716 365 716 q 463 716 451 716 q 483 713 475 715 q 487 687 486 701 q 488 658 488 673 q 486 623 488 641 q 481 588 484 605 q 459 591 470 591 q 440 591 447 591 q 368 581 402 591 q 307 544 334 570 q 264 472 280 518 q 248 354 248 426 l 248 0 q 214 -4 233 -2 q 180 -5 195 -5 q 146 -4 165 -5 q 111 0 127 -2 l 111 712 "},"¿":{"x_min":84.734375,"x_max":648.65625,"ha":678,"o":"m 455 193 q 361 161 402 179 q 290 120 319 144 q 245 63 261 95 q 230 -12 230 30 q 283 -123 230 -83 q 434 -163 336 -163 q 535 -154 497 -163 q 613 -130 573 -145 q 635 -185 626 -156 q 648 -245 644 -213 q 586 -264 615 -256 q 531 -276 558 -272 q 476 -282 504 -280 q 416 -284 448 -284 q 168 -210 252 -284 q 84 -13 84 -136 q 113 107 84 56 q 179 192 141 158 q 258 246 218 226 q 323 275 298 266 l 323 418 q 391 423 355 423 q 423 422 406 423 q 455 418 440 420 l 455 193 m 468 713 q 472 675 470 694 q 473 637 473 657 q 472 598 473 618 q 468 559 470 579 q 429 554 448 556 q 390 552 409 552 q 351 554 370 552 q 312 559 331 556 q 308 597 309 579 q 306 636 306 616 q 308 675 306 655 q 312 713 309 694 q 350 718 330 716 q 388 719 369 719 q 430 718 408 719 q 468 713 452 716 "},"ý":{"x_min":18.0625,"x_max":712.5625,"ha":732,"o":"m 354 -1 q 331 -2 343 -1 q 308 -2 319 -2 q 279 -2 294 -2 q 254 0 263 -1 l 18 712 q 55 716 36 715 q 91 716 75 716 q 131 716 109 716 q 169 712 154 715 l 366 50 l 570 712 q 638 716 600 716 q 673 716 654 716 q 712 712 693 715 l 436 -144 q 395 -240 416 -201 q 348 -302 375 -279 q 289 -336 322 -326 q 213 -345 256 -345 q 150 -341 181 -345 q 95 -329 119 -336 q 101 -272 95 -297 q 118 -222 106 -247 q 152 -231 130 -226 q 198 -236 173 -236 q 232 -232 216 -236 q 262 -218 248 -229 q 288 -188 276 -208 q 311 -136 300 -169 l 354 -1 m 382 825 q 348 820 366 822 q 308 819 330 819 q 277 820 293 819 q 244 825 261 822 l 404 1001 q 447 1005 425 1004 q 493 1007 469 1007 q 539 1005 518 1007 q 579 1001 559 1004 l 382 825 "},"x":{"x_min":25,"x_max":682,"ha":707,"o":"m 218 369 l 50 712 q 122 718 81 718 q 160 716 141 718 q 200 712 179 715 l 347 368 l 169 0 q 134 -4 151 -2 q 100 -5 116 -5 q 62 -4 80 -5 q 25 0 44 -2 l 218 369 m 358 368 l 506 712 q 545 716 526 715 q 584 718 565 718 q 654 712 622 718 l 488 373 l 682 0 q 644 -4 662 -2 q 607 -5 626 -5 q 537 0 569 -5 l 358 368 "},"è":{"x_min":69.0625,"x_max":703.828125,"ha":774,"o":"m 214 322 q 275 151 217 205 q 445 97 332 97 q 633 131 544 97 q 651 81 644 111 q 659 22 658 51 q 558 -6 613 2 q 437 -16 503 -16 q 270 10 339 -16 q 155 86 201 37 q 89 203 110 136 q 69 351 69 270 q 89 499 69 430 q 151 618 109 568 q 255 699 192 669 q 405 729 319 729 q 534 704 478 729 q 627 635 589 679 q 684 531 664 591 q 703 400 703 470 q 702 359 703 380 q 699 322 701 337 l 214 322 m 567 425 q 557 499 567 463 q 526 561 546 534 q 475 603 506 587 q 401 619 444 619 q 271 568 316 619 q 216 425 226 516 l 567 425 m 185 1001 q 226 1005 206 1004 q 272 1007 247 1007 q 317 1005 294 1007 q 361 1001 340 1004 l 521 825 q 456 819 489 819 q 416 820 435 819 q 382 825 397 822 l 185 1001 "},"º":{"x_min":90.28125,"x_max":604.21875,"ha":695,"o":"m 481 705 q 449 847 481 795 q 347 898 416 898 q 245 847 279 898 q 212 705 212 795 q 245 563 212 615 q 347 511 279 511 q 449 563 416 511 q 481 705 481 615 m 90 705 q 106 818 90 765 q 154 911 122 870 q 235 975 187 951 q 347 998 283 998 q 459 975 411 998 q 540 911 508 951 q 588 818 572 870 q 604 705 604 765 q 588 592 604 645 q 540 497 572 538 q 459 433 508 456 q 347 409 411 409 q 235 433 283 409 q 154 497 187 456 q 106 592 122 538 q 90 705 90 645 "},"Ø":{"x_min":77.78125,"x_max":923.6875,"ha":1006,"o":"m 502 -16 q 354 5 419 -16 q 240 69 290 27 l 190 0 q 134 -4 166 -4 q 77 0 102 -4 l 177 137 q 104 297 129 205 q 80 498 80 388 q 106 705 80 611 q 184 868 131 800 q 315 976 236 937 q 502 1015 394 1015 q 645 994 581 1015 q 758 933 709 973 l 805 998 q 829 1002 816 1001 q 859 1004 843 1004 q 891 1002 877 1004 q 918 998 905 1001 l 822 866 q 898 704 873 797 q 923 498 923 611 q 898 291 923 386 q 821 128 873 197 q 690 21 769 59 q 502 -16 611 -16 m 502 105 q 622 132 572 105 q 707 211 673 159 q 757 334 740 262 q 773 498 773 406 q 730 741 773 643 l 320 180 q 502 105 388 105 m 231 498 q 269 263 231 356 l 676 822 q 502 890 611 890 q 382 863 433 890 q 298 785 331 836 q 248 661 265 734 q 231 498 231 588 "},"÷":{"x_min":118.0625,"x_max":716.71875,"ha":833,"o":"m 316 743 q 344 811 316 783 q 412 838 372 838 q 479 811 451 838 q 508 743 508 783 q 479 675 508 702 q 412 648 451 648 q 344 675 372 648 q 316 743 316 702 m 316 241 q 344 309 316 280 q 412 337 372 337 q 479 309 451 337 q 508 241 508 280 q 479 173 508 201 q 412 145 451 145 q 344 173 372 145 q 316 241 316 201 m 711 552 q 715 521 713 538 q 716 488 716 504 q 715 456 716 473 q 711 426 713 438 l 122 426 q 118 456 119 438 q 118 488 118 473 q 118 521 118 504 q 122 552 119 538 l 711 552 "},"h":{"x_min":109.734375,"x_max":705.609375,"ha":803,"o":"m 109 1018 q 143 1022 125 1020 q 177 1023 162 1023 q 212 1022 193 1023 q 247 1018 231 1020 l 247 604 q 278 645 259 623 q 324 686 297 668 q 386 717 351 705 q 465 729 422 729 q 646 659 587 729 q 705 451 705 588 l 705 0 q 671 -4 690 -2 q 637 -5 652 -5 q 603 -4 622 -5 q 569 0 584 -2 l 569 413 q 536 559 569 512 q 437 605 504 605 q 365 592 400 605 q 304 550 330 579 q 262 476 277 522 q 247 365 247 430 l 247 0 q 212 -4 231 -2 q 177 -5 193 -5 q 144 -4 163 -5 q 109 0 125 -2 l 109 1018 "},".":{"x_min":83.34375,"x_max":251.40625,"ha":335,"o":"m 90 0 q 85 38 87 19 q 83 76 83 56 q 85 115 83 95 q 90 155 87 136 q 128 159 109 158 q 166 161 147 161 q 205 159 186 161 q 244 155 225 158 q 249 116 247 136 q 251 77 251 97 q 249 38 251 58 q 244 0 247 19 q 206 -4 225 -2 q 168 -5 187 -5 q 129 -4 148 -5 q 90 0 109 -2 "},";":{"x_min":40.78125,"x_max":276.40625,"ha":361,"o":"m 122 152 q 156 157 139 155 q 189 159 174 159 q 260 152 221 159 l 172 -156 q 138 -160 156 -159 q 106 -161 121 -161 q 72 -160 89 -161 q 40 -156 56 -159 l 122 152 m 115 560 q 110 598 112 579 q 108 636 108 616 q 110 675 108 655 q 115 715 112 696 q 153 719 134 718 q 191 721 172 721 q 230 719 211 721 q 269 715 250 718 q 274 676 272 696 q 276 637 276 657 q 274 598 276 618 q 269 560 272 579 q 231 555 250 557 q 193 554 212 554 q 154 555 173 554 q 115 560 134 557 "},"f":{"x_min":37.5,"x_max":529.203125,"ha":514,"o":"m 159 604 l 43 604 q 37 658 37 626 q 43 712 37 688 l 159 712 l 159 762 q 225 963 159 894 q 418 1032 291 1032 q 479 1028 452 1032 q 529 1018 505 1025 q 521 958 526 983 q 508 907 516 933 q 475 913 494 909 q 430 916 456 916 q 375 910 400 916 q 334 886 351 904 q 306 838 316 869 q 297 758 297 807 l 297 712 l 479 712 q 483 655 483 684 q 479 604 483 629 l 297 604 l 297 0 q 263 -4 281 -2 q 229 -5 244 -5 q 194 -4 213 -5 q 159 0 175 -2 l 159 604 "},"A":{"x_min":22.21875,"x_max":833.40625,"ha":857,"o":"m 613 230 l 234 230 l 166 0 q 130 -4 148 -2 q 94 -5 112 -5 q 56 -4 75 -5 q 22 0 37 -2 l 347 998 q 386 1002 365 1001 q 429 1004 406 1004 q 469 1002 448 1004 q 509 998 490 1001 l 833 0 q 795 -4 816 -2 q 755 -5 775 -5 q 718 -4 737 -5 q 683 0 700 -2 l 613 230 m 272 354 l 576 354 l 423 863 l 272 354 "},"6":{"x_min":91.671875,"x_max":768.109375,"ha":833,"o":"m 91 384 q 122 615 91 506 q 218 808 154 723 q 383 946 283 893 q 620 1011 483 1000 q 632 947 632 977 q 630 919 632 933 q 626 894 629 905 q 471 853 538 886 q 355 769 404 820 q 277 650 306 718 q 234 506 247 583 q 324 597 265 559 q 472 636 383 636 q 581 617 527 636 q 676 559 634 598 q 743 460 718 520 q 768 316 768 400 q 739 172 768 234 q 663 68 711 109 q 556 4 616 26 q 431 -16 495 -16 q 289 6 352 -16 q 182 77 226 29 q 115 202 138 126 q 91 384 91 277 m 437 519 q 361 505 397 519 q 298 464 325 491 q 256 398 272 437 q 241 309 241 359 q 291 154 241 205 q 427 102 340 102 q 504 116 469 102 q 566 156 540 130 q 608 222 593 183 q 623 312 623 261 q 609 406 623 368 q 569 470 594 445 q 510 507 544 495 q 437 519 476 519 "},"O":{"x_min":84.734375,"x_max":927.859375,"ha":1013,"o":"m 506 -16 q 319 21 398 -16 q 188 128 240 59 q 110 291 136 197 q 84 498 84 386 q 110 705 84 611 q 188 868 136 800 q 319 976 240 937 q 506 1015 398 1015 q 694 976 615 1015 q 825 868 773 937 q 902 705 877 800 q 927 498 927 611 q 902 291 927 386 q 825 128 877 197 q 694 21 773 59 q 506 -16 615 -16 m 506 105 q 627 132 576 105 q 711 211 677 159 q 761 334 744 262 q 777 498 777 406 q 761 661 777 588 q 711 785 744 734 q 627 863 677 836 q 506 890 576 890 q 386 863 437 890 q 302 785 336 836 q 252 661 269 734 q 236 498 236 588 q 252 334 236 406 q 302 211 269 262 q 386 132 336 159 q 506 105 437 105 "},"n":{"x_min":111.125,"x_max":707,"ha":803,"o":"m 111 712 q 140 716 126 715 q 170 718 155 718 q 199 716 186 718 q 227 712 212 715 q 236 656 231 691 q 240 597 240 620 q 275 644 254 620 q 325 686 297 668 q 388 717 352 705 q 468 729 425 729 q 648 659 590 729 q 707 451 707 588 l 707 0 q 672 -4 691 -2 q 637 -5 652 -5 q 603 -4 622 -5 q 569 0 584 -2 l 569 413 q 538 559 569 512 q 441 605 508 605 q 368 591 402 605 q 306 548 333 577 q 264 472 280 519 q 248 361 248 426 l 248 0 q 214 -4 233 -2 q 180 -5 195 -5 q 145 -4 165 -5 q 111 0 126 -2 l 111 712 "},"3":{"x_min":66.671875,"x_max":708.390625,"ha":833,"o":"m 313 20 q 413 31 366 20 q 493 68 459 43 q 547 132 527 93 q 568 229 568 172 q 511 356 568 315 q 362 398 454 398 q 306 396 334 398 q 250 387 277 394 l 238 406 l 470 772 l 113 772 q 108 832 108 800 q 109 863 108 847 q 113 895 111 880 l 676 895 l 686 879 l 433 494 q 443 495 437 495 q 454 495 448 495 q 567 472 519 495 q 646 413 615 450 q 693 331 677 376 q 708 241 708 286 q 677 88 708 152 q 593 -18 645 23 q 469 -81 540 -61 q 318 -101 398 -101 q 187 -90 248 -101 q 66 -55 126 -79 q 82 4 70 -25 q 109 61 94 33 q 202 31 154 43 q 313 20 251 20 "},"9":{"x_min":73.609375,"x_max":750.0625,"ha":833,"o":"m 750 505 q 718 275 750 383 q 622 81 687 166 q 458 -56 558 -2 q 220 -120 358 -109 q 209 -55 209 -94 q 211 -29 209 -44 q 215 -2 212 -15 q 368 36 300 4 q 487 120 437 69 q 567 239 537 172 q 605 383 597 306 q 517 291 576 330 q 369 252 458 252 q 259 271 312 252 q 165 329 206 290 q 98 428 123 368 q 73 572 73 488 q 102 716 73 654 q 177 821 130 779 q 285 885 225 863 q 409 907 345 907 q 552 884 488 907 q 659 812 615 861 q 726 687 702 763 q 750 505 750 611 m 404 370 q 480 384 444 370 q 543 425 516 398 q 584 491 569 452 q 600 579 600 530 q 550 735 600 683 q 413 787 501 787 q 274 734 330 787 q 218 576 218 680 q 232 481 218 520 q 272 418 247 443 q 331 381 297 393 q 404 370 365 370 "},"l":{"x_min":108.34375,"x_max":400.03125,"ha":414,"o":"m 108 1018 q 142 1022 123 1020 q 176 1023 161 1023 q 210 1022 191 1023 q 244 1018 229 1020 l 244 215 q 251 154 244 176 q 270 120 258 131 q 297 104 281 108 q 331 101 313 101 q 360 102 344 101 q 387 106 376 104 q 400 1 400 58 q 352 -7 380 -5 q 301 -9 325 -9 q 226 0 261 -9 q 165 31 191 9 q 123 91 138 54 q 108 184 108 129 l 108 1018 "},"¤":{"x_min":59.734375,"x_max":773.671875,"ha":833,"o":"m 116 483 q 130 572 116 530 q 169 650 144 613 l 59 761 q 95 811 75 791 q 144 843 116 830 l 254 732 q 329 768 288 755 q 416 780 370 780 q 503 768 462 780 q 580 732 544 755 l 691 843 q 738 807 716 827 q 773 762 759 787 l 663 652 q 704 573 690 616 q 719 483 719 530 q 704 394 719 436 q 666 316 690 352 l 772 211 q 693 129 741 158 l 583 237 q 416 187 509 187 q 248 237 322 187 l 141 130 q 91 165 111 144 q 59 213 72 187 l 165 319 q 129 395 141 354 q 116 483 116 437 m 240 483 q 253 411 240 444 q 290 352 266 377 q 346 313 313 327 q 416 298 379 298 q 488 313 455 298 q 544 352 520 327 q 581 411 568 377 q 595 483 595 444 q 581 555 595 522 q 544 613 568 588 q 488 653 520 638 q 416 668 455 668 q 346 653 379 668 q 290 613 313 638 q 253 555 266 588 q 240 483 240 522 "},"4":{"x_min":45.84375,"x_max":798.671875,"ha":833,"o":"m 56 108 l 45 123 l 452 920 q 513 906 481 918 q 573 875 544 894 l 250 230 l 530 230 l 530 494 q 563 498 547 497 q 595 500 580 500 q 631 498 613 500 q 665 494 648 497 l 665 230 l 793 230 q 797 200 795 215 q 798 169 798 184 q 797 138 798 154 q 793 108 795 122 l 665 108 l 665 -81 q 631 -85 647 -84 q 598 -86 615 -86 q 564 -85 581 -86 q 530 -81 547 -84 l 530 108 l 56 108 "},"p":{"x_min":109.734375,"x_max":745.890625,"ha":820,"o":"m 109 712 q 138 716 123 715 q 168 718 152 718 q 197 716 181 718 q 226 712 212 715 q 229 695 227 709 q 234 663 231 680 q 238 632 236 647 q 240 612 240 616 q 273 655 254 634 q 320 693 293 676 q 381 719 347 709 q 456 729 415 729 q 572 708 519 729 q 664 643 626 687 q 724 532 702 600 q 745 373 745 465 q 646 86 745 190 q 365 -16 547 -16 q 302 -12 334 -16 q 247 -1 270 -8 l 247 -327 q 211 -331 230 -330 q 177 -333 193 -333 q 143 -331 162 -333 q 109 -327 125 -330 l 109 712 m 247 116 q 301 102 273 106 q 373 98 329 98 q 465 114 423 98 q 536 163 506 130 q 584 247 566 197 q 601 368 601 298 q 560 544 601 479 q 426 609 519 609 q 359 597 391 609 q 302 559 327 584 q 262 496 277 534 q 247 405 247 458 l 247 116 "},"à":{"x_min":66.671875,"x_max":622.265625,"ha":718,"o":"m 487 334 q 434 340 466 337 q 380 343 402 343 q 249 311 294 343 q 204 213 204 279 q 219 148 204 172 q 257 112 234 125 q 308 97 280 100 q 361 94 336 94 q 427 97 393 94 q 487 108 461 101 l 487 334 m 487 469 q 445 583 487 551 q 325 615 404 615 q 234 607 276 615 q 151 587 191 600 q 125 697 125 633 q 229 720 172 712 q 338 729 286 729 q 550 666 477 729 q 622 463 622 602 l 622 18 q 504 -4 573 6 q 362 -16 434 -16 q 239 -4 294 -16 q 146 36 184 8 q 87 106 108 63 q 66 211 66 150 q 90 316 66 270 q 156 391 115 361 q 252 435 198 420 q 366 450 306 450 q 439 447 411 450 q 487 443 468 445 l 487 469 m 129 1001 q 170 1005 150 1004 q 216 1007 191 1007 q 261 1005 238 1007 q 305 1001 284 1004 l 465 825 q 400 819 433 819 q 360 820 379 819 q 326 825 341 822 l 129 1001 "},"Ü":{"x_min":112.515625,"x_max":823.671875,"ha":936,"o":"m 112 998 q 184 1002 145 1002 q 254 998 222 1002 l 254 431 q 265 284 254 345 q 301 185 276 223 q 367 129 326 147 q 468 111 408 111 q 568 129 527 111 q 633 185 608 147 q 669 284 658 223 q 680 431 680 345 l 680 998 q 751 1002 715 1002 q 823 998 790 1002 l 823 406 q 804 227 823 306 q 743 94 786 148 q 633 11 701 40 q 468 -16 565 -16 q 302 11 370 -16 q 192 94 234 40 q 131 227 150 148 q 112 406 112 306 l 112 998 m 246 1095 q 241 1165 241 1130 q 246 1236 241 1200 q 283 1240 265 1238 q 318 1241 301 1241 q 355 1240 336 1241 q 391 1236 375 1238 q 397 1166 397 1204 q 391 1095 397 1127 q 356 1091 375 1093 q 319 1090 337 1090 q 284 1091 302 1090 q 246 1095 265 1093 m 544 1095 q 539 1130 541 1113 q 537 1165 537 1147 q 544 1236 537 1197 q 580 1240 561 1238 q 616 1241 598 1241 q 652 1240 633 1241 q 690 1236 671 1238 q 694 1166 694 1200 q 690 1095 694 1130 q 652 1091 671 1093 q 616 1090 634 1090 q 580 1091 600 1090 q 544 1095 561 1093 "},"ó":{"x_min":68.0625,"x_max":732,"ha":801,"o":"m 400 -16 q 254 11 316 -16 q 150 90 191 40 q 88 208 108 140 q 68 355 68 276 q 88 502 68 434 q 150 620 108 570 q 254 700 191 670 q 400 729 316 729 q 545 700 483 729 q 650 620 608 670 q 711 502 691 570 q 732 355 732 434 q 711 208 732 276 q 650 90 691 140 q 545 11 608 40 q 400 -16 483 -16 m 400 93 q 541 162 495 93 q 587 355 587 231 q 541 547 587 479 q 400 616 495 616 q 259 547 304 616 q 213 355 213 479 q 259 162 213 231 q 400 93 304 93 m 408 825 q 374 820 392 822 q 334 819 356 819 q 303 820 319 819 q 270 825 287 822 l 430 1001 q 473 1005 451 1004 q 519 1007 495 1007 q 565 1005 544 1007 q 605 1001 585 1004 l 408 825 "}}}
